<?xml version="1.0" encoding="utf-8" standalone="no"?>
<!DOCTYPE svg PUBLIC "-//W3C//DTD SVG 1.1//EN"
  "http://www.w3.org/Graphics/SVG/1.1/DTD/svg11.dtd">
<!-- Created with matplotlib (https://matplotlib.org/) -->
<svg height="288pt" version="1.1" viewBox="0 0 432 288" width="432pt" xmlns="http://www.w3.org/2000/svg" xmlns:xlink="http://www.w3.org/1999/xlink">
 <defs>
  <style type="text/css">
*{stroke-linecap:butt;stroke-linejoin:round;}
  </style>
 </defs>
 <g id="figure_1">
  <g id="patch_1">
   <path d="M 0 288 
L 432 288 
L 432 0 
L 0 0 
z
" style="fill:#ffffff;"/>
  </g>
  <g id="axes_1">
   <g id="patch_2">
    <path d="M 54 252 
L 388.8 252 
L 388.8 34.56 
L 54 34.56 
z
" style="fill:#ffffff;"/>
   </g>
   <g id="matplotlib.axis_1">
    <g id="xtick_1">
     <g id="line2d_1">
      <defs>
       <path d="M 0 0 
L 0 3.5 
" id="m73cb81e546" style="stroke:#000000;stroke-width:0.8;"/>
      </defs>
      <g>
       <use style="stroke:#000000;stroke-width:0.8;" x="99.654545" xlink:href="#m73cb81e546" y="252"/>
      </g>
     </g>
     <g id="text_1">
      <!-- −4 -->
      <defs>
       <path d="M 10.59375 35.5 
L 73.1875 35.5 
L 73.1875 27.203125 
L 10.59375 27.203125 
z
" id="DejaVuSans-8722"/>
       <path d="M 37.796875 64.3125 
L 12.890625 25.390625 
L 37.796875 25.390625 
z
M 35.203125 72.90625 
L 47.609375 72.90625 
L 47.609375 25.390625 
L 58.015625 25.390625 
L 58.015625 17.1875 
L 47.609375 17.1875 
L 47.609375 0 
L 37.796875 0 
L 37.796875 17.1875 
L 4.890625 17.1875 
L 4.890625 26.703125 
z
" id="DejaVuSans-52"/>
      </defs>
      <g transform="translate(92.283452 266.598437)scale(0.1 -0.1)">
       <use xlink:href="#DejaVuSans-8722"/>
       <use x="83.789062" xlink:href="#DejaVuSans-52"/>
      </g>
     </g>
    </g>
    <g id="xtick_2">
     <g id="line2d_2">
      <g>
       <use style="stroke:#000000;stroke-width:0.8;" x="160.527273" xlink:href="#m73cb81e546" y="252"/>
      </g>
     </g>
     <g id="text_2">
      <!-- −2 -->
      <defs>
       <path d="M 19.1875 8.296875 
L 53.609375 8.296875 
L 53.609375 0 
L 7.328125 0 
L 7.328125 8.296875 
Q 12.9375 14.109375 22.625 23.890625 
Q 32.328125 33.6875 34.8125 36.53125 
Q 39.546875 41.84375 41.421875 45.53125 
Q 43.3125 49.21875 43.3125 52.78125 
Q 43.3125 58.59375 39.234375 62.25 
Q 35.15625 65.921875 28.609375 65.921875 
Q 23.96875 65.921875 18.8125 64.3125 
Q 13.671875 62.703125 7.8125 59.421875 
L 7.8125 69.390625 
Q 13.765625 71.78125 18.9375 73 
Q 24.125 74.21875 28.421875 74.21875 
Q 39.75 74.21875 46.484375 68.546875 
Q 53.21875 62.890625 53.21875 53.421875 
Q 53.21875 48.921875 51.53125 44.890625 
Q 49.859375 40.875 45.40625 35.40625 
Q 44.1875 33.984375 37.640625 27.21875 
Q 31.109375 20.453125 19.1875 8.296875 
z
" id="DejaVuSans-50"/>
      </defs>
      <g transform="translate(153.156179 266.598437)scale(0.1 -0.1)">
       <use xlink:href="#DejaVuSans-8722"/>
       <use x="83.789062" xlink:href="#DejaVuSans-50"/>
      </g>
     </g>
    </g>
    <g id="xtick_3">
     <g id="line2d_3">
      <g>
       <use style="stroke:#000000;stroke-width:0.8;" x="221.4" xlink:href="#m73cb81e546" y="252"/>
      </g>
     </g>
     <g id="text_3">
      <!-- 0 -->
      <defs>
       <path d="M 31.78125 66.40625 
Q 24.171875 66.40625 20.328125 58.90625 
Q 16.5 51.421875 16.5 36.375 
Q 16.5 21.390625 20.328125 13.890625 
Q 24.171875 6.390625 31.78125 6.390625 
Q 39.453125 6.390625 43.28125 13.890625 
Q 47.125 21.390625 47.125 36.375 
Q 47.125 51.421875 43.28125 58.90625 
Q 39.453125 66.40625 31.78125 66.40625 
z
M 31.78125 74.21875 
Q 44.046875 74.21875 50.515625 64.515625 
Q 56.984375 54.828125 56.984375 36.375 
Q 56.984375 17.96875 50.515625 8.265625 
Q 44.046875 -1.421875 31.78125 -1.421875 
Q 19.53125 -1.421875 13.0625 8.265625 
Q 6.59375 17.96875 6.59375 36.375 
Q 6.59375 54.828125 13.0625 64.515625 
Q 19.53125 74.21875 31.78125 74.21875 
z
" id="DejaVuSans-48"/>
      </defs>
      <g transform="translate(218.21875 266.598437)scale(0.1 -0.1)">
       <use xlink:href="#DejaVuSans-48"/>
      </g>
     </g>
    </g>
    <g id="xtick_4">
     <g id="line2d_4">
      <g>
       <use style="stroke:#000000;stroke-width:0.8;" x="282.272727" xlink:href="#m73cb81e546" y="252"/>
      </g>
     </g>
     <g id="text_4">
      <!-- 2 -->
      <g transform="translate(279.091477 266.598437)scale(0.1 -0.1)">
       <use xlink:href="#DejaVuSans-50"/>
      </g>
     </g>
    </g>
    <g id="xtick_5">
     <g id="line2d_5">
      <g>
       <use style="stroke:#000000;stroke-width:0.8;" x="343.145455" xlink:href="#m73cb81e546" y="252"/>
      </g>
     </g>
     <g id="text_5">
      <!-- 4 -->
      <g transform="translate(339.964205 266.598437)scale(0.1 -0.1)">
       <use xlink:href="#DejaVuSans-52"/>
      </g>
     </g>
    </g>
   </g>
   <g id="matplotlib.axis_2">
    <g id="ytick_1">
     <g id="line2d_6">
      <defs>
       <path d="M 0 0 
L -3.5 0 
" id="mcd0c663315" style="stroke:#000000;stroke-width:0.8;"/>
      </defs>
      <g>
       <use style="stroke:#000000;stroke-width:0.8;" x="54" xlink:href="#mcd0c663315" y="243.427599"/>
      </g>
     </g>
     <g id="text_6">
      <!-- −1.00 -->
      <defs>
       <path d="M 12.40625 8.296875 
L 28.515625 8.296875 
L 28.515625 63.921875 
L 10.984375 60.40625 
L 10.984375 69.390625 
L 28.421875 72.90625 
L 38.28125 72.90625 
L 38.28125 8.296875 
L 54.390625 8.296875 
L 54.390625 0 
L 12.40625 0 
z
" id="DejaVuSans-49"/>
       <path d="M 10.6875 12.40625 
L 21 12.40625 
L 21 0 
L 10.6875 0 
z
" id="DejaVuSans-46"/>
      </defs>
      <g transform="translate(16.354687 247.226817)scale(0.1 -0.1)">
       <use xlink:href="#DejaVuSans-8722"/>
       <use x="83.789062" xlink:href="#DejaVuSans-49"/>
       <use x="147.412109" xlink:href="#DejaVuSans-46"/>
       <use x="179.199219" xlink:href="#DejaVuSans-48"/>
       <use x="242.822266" xlink:href="#DejaVuSans-48"/>
      </g>
     </g>
    </g>
    <g id="ytick_2">
     <g id="line2d_7">
      <g>
       <use style="stroke:#000000;stroke-width:0.8;" x="54" xlink:href="#mcd0c663315" y="218.390699"/>
      </g>
     </g>
     <g id="text_7">
      <!-- −0.75 -->
      <defs>
       <path d="M 8.203125 72.90625 
L 55.078125 72.90625 
L 55.078125 68.703125 
L 28.609375 0 
L 18.3125 0 
L 43.21875 64.59375 
L 8.203125 64.59375 
z
" id="DejaVuSans-55"/>
       <path d="M 10.796875 72.90625 
L 49.515625 72.90625 
L 49.515625 64.59375 
L 19.828125 64.59375 
L 19.828125 46.734375 
Q 21.96875 47.46875 24.109375 47.828125 
Q 26.265625 48.1875 28.421875 48.1875 
Q 40.625 48.1875 47.75 41.5 
Q 54.890625 34.8125 54.890625 23.390625 
Q 54.890625 11.625 47.5625 5.09375 
Q 40.234375 -1.421875 26.90625 -1.421875 
Q 22.3125 -1.421875 17.546875 -0.640625 
Q 12.796875 0.140625 7.71875 1.703125 
L 7.71875 11.625 
Q 12.109375 9.234375 16.796875 8.0625 
Q 21.484375 6.890625 26.703125 6.890625 
Q 35.15625 6.890625 40.078125 11.328125 
Q 45.015625 15.765625 45.015625 23.390625 
Q 45.015625 31 40.078125 35.4375 
Q 35.15625 39.890625 26.703125 39.890625 
Q 22.75 39.890625 18.8125 39.015625 
Q 14.890625 38.140625 10.796875 36.28125 
z
" id="DejaVuSans-53"/>
      </defs>
      <g transform="translate(16.354687 222.189918)scale(0.1 -0.1)">
       <use xlink:href="#DejaVuSans-8722"/>
       <use x="83.789062" xlink:href="#DejaVuSans-48"/>
       <use x="147.412109" xlink:href="#DejaVuSans-46"/>
       <use x="179.199219" xlink:href="#DejaVuSans-55"/>
       <use x="242.822266" xlink:href="#DejaVuSans-53"/>
      </g>
     </g>
    </g>
    <g id="ytick_3">
     <g id="line2d_8">
      <g>
       <use style="stroke:#000000;stroke-width:0.8;" x="54" xlink:href="#mcd0c663315" y="193.353799"/>
      </g>
     </g>
     <g id="text_8">
      <!-- −0.50 -->
      <g transform="translate(16.354687 197.153018)scale(0.1 -0.1)">
       <use xlink:href="#DejaVuSans-8722"/>
       <use x="83.789062" xlink:href="#DejaVuSans-48"/>
       <use x="147.412109" xlink:href="#DejaVuSans-46"/>
       <use x="179.199219" xlink:href="#DejaVuSans-53"/>
       <use x="242.822266" xlink:href="#DejaVuSans-48"/>
      </g>
     </g>
    </g>
    <g id="ytick_4">
     <g id="line2d_9">
      <g>
       <use style="stroke:#000000;stroke-width:0.8;" x="54" xlink:href="#mcd0c663315" y="168.3169"/>
      </g>
     </g>
     <g id="text_9">
      <!-- −0.25 -->
      <g transform="translate(16.354687 172.116118)scale(0.1 -0.1)">
       <use xlink:href="#DejaVuSans-8722"/>
       <use x="83.789062" xlink:href="#DejaVuSans-48"/>
       <use x="147.412109" xlink:href="#DejaVuSans-46"/>
       <use x="179.199219" xlink:href="#DejaVuSans-50"/>
       <use x="242.822266" xlink:href="#DejaVuSans-53"/>
      </g>
     </g>
    </g>
    <g id="ytick_5">
     <g id="line2d_10">
      <g>
       <use style="stroke:#000000;stroke-width:0.8;" x="54" xlink:href="#mcd0c663315" y="143.28"/>
      </g>
     </g>
     <g id="text_10">
      <!-- 0.00 -->
      <g transform="translate(24.734375 147.079219)scale(0.1 -0.1)">
       <use xlink:href="#DejaVuSans-48"/>
       <use x="63.623047" xlink:href="#DejaVuSans-46"/>
       <use x="95.410156" xlink:href="#DejaVuSans-48"/>
       <use x="159.033203" xlink:href="#DejaVuSans-48"/>
      </g>
     </g>
    </g>
    <g id="ytick_6">
     <g id="line2d_11">
      <g>
       <use style="stroke:#000000;stroke-width:0.8;" x="54" xlink:href="#mcd0c663315" y="118.2431"/>
      </g>
     </g>
     <g id="text_11">
      <!-- 0.25 -->
      <g transform="translate(24.734375 122.042319)scale(0.1 -0.1)">
       <use xlink:href="#DejaVuSans-48"/>
       <use x="63.623047" xlink:href="#DejaVuSans-46"/>
       <use x="95.410156" xlink:href="#DejaVuSans-50"/>
       <use x="159.033203" xlink:href="#DejaVuSans-53"/>
      </g>
     </g>
    </g>
    <g id="ytick_7">
     <g id="line2d_12">
      <g>
       <use style="stroke:#000000;stroke-width:0.8;" x="54" xlink:href="#mcd0c663315" y="93.206201"/>
      </g>
     </g>
     <g id="text_12">
      <!-- 0.50 -->
      <g transform="translate(24.734375 97.005419)scale(0.1 -0.1)">
       <use xlink:href="#DejaVuSans-48"/>
       <use x="63.623047" xlink:href="#DejaVuSans-46"/>
       <use x="95.410156" xlink:href="#DejaVuSans-53"/>
       <use x="159.033203" xlink:href="#DejaVuSans-48"/>
      </g>
     </g>
    </g>
    <g id="ytick_8">
     <g id="line2d_13">
      <g>
       <use style="stroke:#000000;stroke-width:0.8;" x="54" xlink:href="#mcd0c663315" y="68.169301"/>
      </g>
     </g>
     <g id="text_13">
      <!-- 0.75 -->
      <g transform="translate(24.734375 71.96852)scale(0.1 -0.1)">
       <use xlink:href="#DejaVuSans-48"/>
       <use x="63.623047" xlink:href="#DejaVuSans-46"/>
       <use x="95.410156" xlink:href="#DejaVuSans-55"/>
       <use x="159.033203" xlink:href="#DejaVuSans-53"/>
      </g>
     </g>
    </g>
    <g id="ytick_9">
     <g id="line2d_14">
      <g>
       <use style="stroke:#000000;stroke-width:0.8;" x="54" xlink:href="#mcd0c663315" y="43.132401"/>
      </g>
     </g>
     <g id="text_14">
      <!-- 1.00 -->
      <g transform="translate(24.734375 46.93162)scale(0.1 -0.1)">
       <use xlink:href="#DejaVuSans-49"/>
       <use x="63.623047" xlink:href="#DejaVuSans-46"/>
       <use x="95.410156" xlink:href="#DejaVuSans-48"/>
       <use x="159.033203" xlink:href="#DejaVuSans-48"/>
      </g>
     </g>
    </g>
   </g>
   <g id="line2d_15">
    <path clip-path="url(#p83766370a8)" d="M 69.218182 143.28 
L 109.434398 143.351622 
L 110.95774 143.388445 
L 114.309091 143.167192 
L 116.746437 143.533536 
L 117.660442 143.358485 
L 119.183784 142.93614 
L 120.097789 142.974099 
L 121.011794 143.303237 
L 122.230467 143.759257 
L 122.839803 143.773453 
L 123.44914 143.585733 
L 125.581818 142.575641 
L 126.191155 142.699189 
L 126.800491 143.078494 
L 128.019165 144.043036 
L 128.628501 144.240276 
L 129.237838 144.068358 
L 129.847174 143.550366 
L 131.065848 142.245776 
L 131.675184 141.98389 
L 131.979853 142.037258 
L 132.589189 142.523079 
L 133.503194 143.854769 
L 134.112531 144.6678 
L 134.417199 144.915886 
L 134.721867 145.011934 
L 135.026536 144.937218 
L 135.331204 144.689369 
L 135.940541 143.752078 
L 137.159214 141.436337 
L 137.463882 141.111505 
L 137.76855 140.988788 
L 138.073219 141.09213 
L 138.377887 141.423748 
L 138.987224 142.66566 
L 140.205897 145.704814 
L 140.510565 146.125822 
L 140.815233 146.280842 
L 141.119902 146.139611 
L 141.42457 145.700416 
L 142.033907 144.071367 
L 143.25258 140.122685 
L 143.557248 139.582563 
L 143.861916 139.388966 
L 144.166585 139.579712 
L 144.471253 140.155474 
L 145.08059 142.270936 
L 146.299263 147.350049 
L 146.603931 148.035955 
L 146.9086 148.274947 
L 147.213268 148.020319 
L 147.517936 147.273183 
L 148.127273 144.553588 
L 149.345946 138.085737 
L 149.650614 137.223546 
L 149.955283 136.931942 
L 150.259951 137.267945 
L 150.564619 138.22763 
L 151.173956 141.688866 
L 152.392629 149.842823 
L 152.697297 150.915597 
L 153.001966 151.267205 
L 153.306634 150.828863 
L 153.611302 149.608663 
L 154.220639 145.247661 
L 155.439312 135.070817 
L 155.74398 133.749595 
L 156.048649 133.330693 
L 156.353317 133.896098 
L 156.657985 135.431809 
L 157.267322 140.871444 
L 158.485995 153.446037 
L 158.790663 155.056699 
L 159.095332 155.549727 
L 159.4 154.828582 
L 159.704668 152.915361 
L 160.314005 146.19826 
L 161.532678 130.816329 
L 161.837346 128.872799 
L 162.142015 128.299685 
L 162.446683 129.209255 
L 162.751351 131.568646 
L 163.360688 139.78015 
L 164.579361 158.408047 
L 164.884029 160.72936 
L 165.188698 161.387189 
L 165.493366 160.252617 
L 165.798034 157.372465 
L 166.407371 147.434614 
L 167.321376 129.509261 
L 167.626044 125.101321 
L 167.930713 122.357033 
L 168.235381 121.611685 
L 168.540049 123.0114 
L 168.844717 126.491672 
L 169.454054 138.398371 
L 170.368059 159.706524 
L 170.672727 164.906408 
L 170.977396 168.117672 
L 171.282064 168.951028 
L 171.586732 167.24304 
L 171.8914 163.080152 
L 172.500737 148.957395 
L 173.414742 123.881289 
L 173.71941 117.808819 
L 174.024079 114.089443 
L 174.328747 113.170372 
L 174.633415 115.231911 
L 174.938084 120.16094 
L 175.54742 136.744473 
L 176.461425 165.959783 
L 176.766093 172.979999 
L 177.070762 177.243915 
L 177.37543 178.243229 
L 177.680098 175.781831 
L 177.984767 170.004669 
L 178.594103 150.72657 
L 179.508108 117.029124 
L 179.812776 108.994818 
L 180.117445 104.156565 
L 180.422113 103.085958 
L 180.726781 105.993162 
L 181.03145 112.695951 
L 181.640786 134.88206 
L 182.554791 173.36068 
L 182.859459 182.463134 
L 183.164128 187.896973 
L 183.468796 189.026285 
L 183.773464 185.629321 
L 184.078133 177.931182 
L 184.687469 152.654039 
L 185.601474 109.155167 
L 185.906143 98.946237 
L 186.210811 92.90592 
L 186.515479 91.734116 
L 186.820147 95.660976 
L 187.124816 104.412958 
L 187.734152 132.923461 
L 188.648157 181.605912 
L 188.952826 192.940689 
L 189.257494 199.586436 
L 189.562162 200.781098 
L 189.86683 196.289982 
L 190.171499 186.440381 
L 190.780835 154.604857 
L 191.69484 100.665873 
L 191.999509 88.207645 
L 192.304177 80.970702 
L 192.608845 79.775824 
L 192.913514 84.857795 
L 193.218182 95.830751 
L 193.827518 131.023201 
L 194.741523 190.188755 
L 195.046192 203.744062 
L 195.35086 211.543976 
L 195.655528 212.714039 
L 195.960197 207.024296 
L 196.264865 194.923259 
L 196.874201 156.409359 
L 197.788206 92.15969 
L 198.092875 77.559058 
L 198.397543 69.238669 
L 198.702211 68.120038 
L 199.00688 74.423047 
L 199.311548 87.633463 
L 199.920885 129.360366 
L 200.834889 198.433412 
L 201.139558 214.001759 
L 201.444226 222.786158 
L 201.748894 223.826127 
L 202.053563 216.917213 
L 202.358231 202.641214 
L 202.967568 157.885799 
L 203.881572 84.369776 
L 204.186241 67.936612 
L 204.490909 58.757712 
L 204.795577 57.823176 
L 205.100246 65.31675 
L 205.404914 80.588667 
L 206.014251 128.111899 
L 206.928256 205.574313 
L 207.232924 222.745769 
L 207.537592 232.238131 
L 207.84226 233.042061 
L 208.146929 224.999474 
L 208.451597 208.826917 
L 209.060934 158.869796 
L 209.974939 78.06528 
L 210.279607 60.302968 
L 210.584275 50.58763 
L 210.888943 49.936764 
L 211.193612 58.478367 
L 211.49828 75.432004 
L 212.107617 127.422029 
L 213.021622 210.869997 
L 213.32629 229.058527 
L 213.630958 238.899455 
L 213.935627 239.378555 
L 214.240295 230.401605 
L 214.544963 212.808318 
L 215.1543 159.244197 
L 216.068305 73.928024 
L 216.372973 55.490582 
L 216.677641 45.625451 
L 216.98231 45.332168 
L 217.286978 54.668415 
L 217.591646 72.741486 
L 218.200983 127.375031 
L 219.114988 213.729014 
L 219.419656 232.230557 
L 219.724324 242.017618 
L 220.028993 242.116364 
L 220.333661 232.507374 
L 220.638329 214.12851 
L 221.247666 158.961892 
L 222.161671 72.43149 
L 222.466339 54.052626 
L 222.771007 44.443636 
L 223.075676 44.542382 
L 223.380344 54.329443 
L 223.685012 72.830986 
L 224.294349 127.978384 
L 225.208354 213.818514 
L 225.513022 231.891585 
L 225.81769 241.227832 
L 226.122359 240.934549 
L 226.427027 231.069418 
L 226.731695 212.631976 
L 227.341032 158.055497 
L 228.255037 73.751682 
L 228.559705 56.158395 
L 228.864373 47.181445 
L 229.169042 47.660545 
L 229.47371 57.501473 
L 230.083047 100.396585 
L 231.30172 211.127996 
L 231.606388 228.081633 
L 231.911057 236.623236 
L 232.215725 235.97237 
L 232.520393 226.257032 
L 233.12973 184.485922 
L 234.348403 77.733083 
L 234.653071 61.560526 
L 234.95774 53.517939 
L 235.262408 54.321869 
L 235.567076 63.814231 
L 236.176413 104.082677 
L 237.395086 205.971333 
L 237.699754 221.24325 
L 238.004423 228.736824 
L 238.309091 227.802288 
L 238.613759 218.623388 
L 239.223096 180.193003 
L 240.441769 83.918786 
L 240.746437 69.642787 
L 241.051106 62.733873 
L 241.355774 63.773842 
L 241.660442 72.558241 
L 242.269779 108.866546 
L 243.488452 198.926537 
L 243.79312 212.136953 
L 244.097789 218.439962 
L 244.402457 217.321331 
L 244.707125 209.000942 
L 245.316462 175.04163 
L 246.535135 91.636741 
L 246.839803 79.535704 
L 247.144472 73.845961 
L 247.44914 75.016024 
L 247.753808 82.815938 
L 248.363145 114.259651 
L 249.581818 190.729249 
L 249.886486 201.702205 
L 250.191155 206.784176 
L 250.495823 205.589298 
L 250.800491 198.352355 
L 251.409828 169.52989 
L 252.628501 100.119619 
L 252.93317 90.270018 
L 253.237838 85.778902 
L 253.542506 86.973564 
L 253.847174 93.619311 
L 254.456511 119.77409 
L 255.675184 182.147042 
L 255.979853 190.899024 
L 256.284521 194.825884 
L 256.589189 193.65408 
L 256.893857 187.613763 
L 257.503194 164.11776 
L 258.721867 108.628818 
L 259.026536 100.930679 
L 259.331204 97.533715 
L 259.635872 98.663027 
L 259.940541 104.096866 
L 260.549877 124.992722 
L 261.76855 173.864049 
L 262.073219 180.566838 
L 262.377887 183.474042 
L 262.682555 182.403435 
L 262.987224 177.565182 
L 263.59656 159.168058 
L 264.815233 116.555331 
L 265.119902 110.778169 
L 265.42457 108.316771 
L 265.729238 109.316085 
L 266.033907 113.580001 
L 266.643243 129.614801 
L 267.861916 166.39906 
L 268.166585 171.328089 
L 268.471253 173.389628 
L 268.775921 172.470557 
L 269.08059 168.751181 
L 269.689926 154.915476 
L 270.9086 123.479848 
L 271.213268 119.31696 
L 271.517936 117.608972 
L 271.822604 118.442328 
L 272.127273 121.653592 
L 272.736609 133.472123 
L 273.650614 154.78358 
L 274.259951 163.5486 
L 274.564619 164.948315 
L 274.869287 164.202967 
L 275.173956 161.458679 
L 275.783292 151.464426 
L 276.697297 133.588858 
L 277.306634 126.307383 
L 277.611302 125.172811 
L 277.915971 125.83064 
L 278.220639 128.151953 
L 278.829975 136.518806 
L 279.74398 151.362549 
L 280.353317 157.350745 
L 280.657985 158.260315 
L 280.962654 157.687201 
L 281.267322 155.743671 
L 281.876658 148.809426 
L 282.790663 136.606505 
L 283.4 131.731418 
L 283.704668 131.010273 
L 284.009337 131.503301 
L 284.314005 133.113963 
L 284.923342 138.8033 
L 285.837346 148.734943 
L 286.446683 152.663902 
L 286.751351 153.229307 
L 287.05602 152.810405 
L 287.360688 151.489183 
L 287.970025 146.868035 
L 288.884029 138.865729 
L 289.493366 135.731137 
L 289.798034 135.292795 
L 290.102703 135.644403 
L 290.407371 136.717177 
L 291.016708 140.433077 
L 291.930713 146.816389 
L 292.540049 149.292055 
L 292.844717 149.628058 
L 293.149386 149.336454 
L 293.454054 148.474263 
L 294.063391 145.516221 
L 294.977396 140.475255 
L 295.586732 138.539681 
L 295.8914 138.285053 
L 296.196069 138.524045 
L 296.500737 139.209951 
L 297.110074 141.541106 
L 298.024079 145.482212 
L 298.633415 146.980288 
L 298.938084 147.171034 
L 299.242752 146.977437 
L 299.54742 146.437315 
L 300.156757 144.6186 
L 301.070762 141.568182 
L 301.680098 140.420389 
L 301.984767 140.279158 
L 302.289435 140.434178 
L 302.594103 140.855186 
L 303.20344 142.25989 
L 304.117445 144.597313 
L 304.726781 145.46787 
L 305.03145 145.571212 
L 305.336118 145.448495 
L 305.945455 144.638905 
L 307.468796 141.870631 
L 307.773464 141.622782 
L 308.078133 141.548066 
L 308.382801 141.644114 
L 308.992138 142.259948 
L 310.515479 144.339385 
L 310.820147 144.522742 
L 311.124816 144.57611 
L 311.734152 144.314224 
L 312.648157 143.350348 
L 313.562162 142.491642 
L 314.171499 142.319724 
L 314.780835 142.516964 
L 315.69484 143.23074 
L 316.608845 143.860811 
L 317.218182 143.984359 
L 317.827518 143.837336 
L 319.960197 142.786547 
L 320.569533 142.800743 
L 321.483538 143.118345 
L 322.702211 143.585901 
L 323.616216 143.62386 
L 324.834889 143.295642 
L 326.053563 143.026464 
L 326.967568 143.075502 
L 329.404914 143.464429 
L 330.623587 143.336153 
L 332.451597 143.151339 
L 334.279607 143.307897 
L 335.802948 143.362428 
L 340.068305 143.278268 
L 342.505651 143.302411 
L 346.161671 143.279364 
L 350.427027 143.268171 
L 373.581818 143.28 
L 373.581818 143.28 
" style="fill:none;stroke:#1f77b4;stroke-linecap:square;stroke-width:1.5;"/>
   </g>
   <g id="patch_3">
    <path d="M 54 252 
L 54 34.56 
" style="fill:none;stroke:#000000;stroke-linecap:square;stroke-linejoin:miter;stroke-width:0.8;"/>
   </g>
   <g id="patch_4">
    <path d="M 388.8 252 
L 388.8 34.56 
" style="fill:none;stroke:#000000;stroke-linecap:square;stroke-linejoin:miter;stroke-width:0.8;"/>
   </g>
   <g id="patch_5">
    <path d="M 54 252 
L 388.8 252 
" style="fill:none;stroke:#000000;stroke-linecap:square;stroke-linejoin:miter;stroke-width:0.8;"/>
   </g>
   <g id="patch_6">
    <path d="M 54 34.56 
L 388.8 34.56 
" style="fill:none;stroke:#000000;stroke-linecap:square;stroke-linejoin:miter;stroke-width:0.8;"/>
   </g>
  </g>
 </g>
 <defs>
  <clipPath id="p83766370a8">
   <rect height="217.44" width="334.8" x="54" y="34.56"/>
  </clipPath>
 </defs>
</svg>
