<?xml version="1.0" encoding="utf-8" standalone="no"?>
<!DOCTYPE svg PUBLIC "-//W3C//DTD SVG 1.1//EN"
  "http://www.w3.org/Graphics/SVG/1.1/DTD/svg11.dtd">
<!-- Created with matplotlib (https://matplotlib.org/) -->
<svg height="288pt" version="1.1" viewBox="0 0 432 288" width="432pt" xmlns="http://www.w3.org/2000/svg" xmlns:xlink="http://www.w3.org/1999/xlink">
 <defs>
  <style type="text/css">
*{stroke-linecap:butt;stroke-linejoin:round;}
  </style>
 </defs>
 <g id="figure_1">
  <g id="patch_1">
   <path d="M 0 288 
L 432 288 
L 432 0 
L 0 0 
z
" style="fill:#ffffff;"/>
  </g>
  <g id="axes_1">
   <g id="patch_2">
    <path d="M 54 252 
L 388.8 252 
L 388.8 34.56 
L 54 34.56 
z
" style="fill:#ffffff;"/>
   </g>
   <g id="matplotlib.axis_1">
    <g id="xtick_1">
     <g id="line2d_1">
      <defs>
       <path d="M 0 0 
L 0 3.5 
" id="ma61f247894" style="stroke:#000000;stroke-width:0.8;"/>
      </defs>
      <g>
       <use style="stroke:#000000;stroke-width:0.8;" x="99.654545" xlink:href="#ma61f247894" y="252"/>
      </g>
     </g>
     <g id="text_1">
      <!-- −4 -->
      <defs>
       <path d="M 10.59375 35.5 
L 73.1875 35.5 
L 73.1875 27.203125 
L 10.59375 27.203125 
z
" id="DejaVuSans-8722"/>
       <path d="M 37.796875 64.3125 
L 12.890625 25.390625 
L 37.796875 25.390625 
z
M 35.203125 72.90625 
L 47.609375 72.90625 
L 47.609375 25.390625 
L 58.015625 25.390625 
L 58.015625 17.1875 
L 47.609375 17.1875 
L 47.609375 0 
L 37.796875 0 
L 37.796875 17.1875 
L 4.890625 17.1875 
L 4.890625 26.703125 
z
" id="DejaVuSans-52"/>
      </defs>
      <g transform="translate(92.283452 266.598437)scale(0.1 -0.1)">
       <use xlink:href="#DejaVuSans-8722"/>
       <use x="83.789062" xlink:href="#DejaVuSans-52"/>
      </g>
     </g>
    </g>
    <g id="xtick_2">
     <g id="line2d_2">
      <g>
       <use style="stroke:#000000;stroke-width:0.8;" x="160.527273" xlink:href="#ma61f247894" y="252"/>
      </g>
     </g>
     <g id="text_2">
      <!-- −2 -->
      <defs>
       <path d="M 19.1875 8.296875 
L 53.609375 8.296875 
L 53.609375 0 
L 7.328125 0 
L 7.328125 8.296875 
Q 12.9375 14.109375 22.625 23.890625 
Q 32.328125 33.6875 34.8125 36.53125 
Q 39.546875 41.84375 41.421875 45.53125 
Q 43.3125 49.21875 43.3125 52.78125 
Q 43.3125 58.59375 39.234375 62.25 
Q 35.15625 65.921875 28.609375 65.921875 
Q 23.96875 65.921875 18.8125 64.3125 
Q 13.671875 62.703125 7.8125 59.421875 
L 7.8125 69.390625 
Q 13.765625 71.78125 18.9375 73 
Q 24.125 74.21875 28.421875 74.21875 
Q 39.75 74.21875 46.484375 68.546875 
Q 53.21875 62.890625 53.21875 53.421875 
Q 53.21875 48.921875 51.53125 44.890625 
Q 49.859375 40.875 45.40625 35.40625 
Q 44.1875 33.984375 37.640625 27.21875 
Q 31.109375 20.453125 19.1875 8.296875 
z
" id="DejaVuSans-50"/>
      </defs>
      <g transform="translate(153.156179 266.598437)scale(0.1 -0.1)">
       <use xlink:href="#DejaVuSans-8722"/>
       <use x="83.789062" xlink:href="#DejaVuSans-50"/>
      </g>
     </g>
    </g>
    <g id="xtick_3">
     <g id="line2d_3">
      <g>
       <use style="stroke:#000000;stroke-width:0.8;" x="221.4" xlink:href="#ma61f247894" y="252"/>
      </g>
     </g>
     <g id="text_3">
      <!-- 0 -->
      <defs>
       <path d="M 31.78125 66.40625 
Q 24.171875 66.40625 20.328125 58.90625 
Q 16.5 51.421875 16.5 36.375 
Q 16.5 21.390625 20.328125 13.890625 
Q 24.171875 6.390625 31.78125 6.390625 
Q 39.453125 6.390625 43.28125 13.890625 
Q 47.125 21.390625 47.125 36.375 
Q 47.125 51.421875 43.28125 58.90625 
Q 39.453125 66.40625 31.78125 66.40625 
z
M 31.78125 74.21875 
Q 44.046875 74.21875 50.515625 64.515625 
Q 56.984375 54.828125 56.984375 36.375 
Q 56.984375 17.96875 50.515625 8.265625 
Q 44.046875 -1.421875 31.78125 -1.421875 
Q 19.53125 -1.421875 13.0625 8.265625 
Q 6.59375 17.96875 6.59375 36.375 
Q 6.59375 54.828125 13.0625 64.515625 
Q 19.53125 74.21875 31.78125 74.21875 
z
" id="DejaVuSans-48"/>
      </defs>
      <g transform="translate(218.21875 266.598437)scale(0.1 -0.1)">
       <use xlink:href="#DejaVuSans-48"/>
      </g>
     </g>
    </g>
    <g id="xtick_4">
     <g id="line2d_4">
      <g>
       <use style="stroke:#000000;stroke-width:0.8;" x="282.272727" xlink:href="#ma61f247894" y="252"/>
      </g>
     </g>
     <g id="text_4">
      <!-- 2 -->
      <g transform="translate(279.091477 266.598437)scale(0.1 -0.1)">
       <use xlink:href="#DejaVuSans-50"/>
      </g>
     </g>
    </g>
    <g id="xtick_5">
     <g id="line2d_5">
      <g>
       <use style="stroke:#000000;stroke-width:0.8;" x="343.145455" xlink:href="#ma61f247894" y="252"/>
      </g>
     </g>
     <g id="text_5">
      <!-- 4 -->
      <g transform="translate(339.964205 266.598437)scale(0.1 -0.1)">
       <use xlink:href="#DejaVuSans-52"/>
      </g>
     </g>
    </g>
   </g>
   <g id="matplotlib.axis_2">
    <g id="ytick_1">
     <g id="line2d_6">
      <defs>
       <path d="M 0 0 
L -3.5 0 
" id="m28486b19f1" style="stroke:#000000;stroke-width:0.8;"/>
      </defs>
      <g>
       <use style="stroke:#000000;stroke-width:0.8;" x="54" xlink:href="#m28486b19f1" y="242.374528"/>
      </g>
     </g>
     <g id="text_6">
      <!-- −1.00 -->
      <defs>
       <path d="M 12.40625 8.296875 
L 28.515625 8.296875 
L 28.515625 63.921875 
L 10.984375 60.40625 
L 10.984375 69.390625 
L 28.421875 72.90625 
L 38.28125 72.90625 
L 38.28125 8.296875 
L 54.390625 8.296875 
L 54.390625 0 
L 12.40625 0 
z
" id="DejaVuSans-49"/>
       <path d="M 10.6875 12.40625 
L 21 12.40625 
L 21 0 
L 10.6875 0 
z
" id="DejaVuSans-46"/>
      </defs>
      <g transform="translate(16.354687 246.173746)scale(0.1 -0.1)">
       <use xlink:href="#DejaVuSans-8722"/>
       <use x="83.789062" xlink:href="#DejaVuSans-49"/>
       <use x="147.412109" xlink:href="#DejaVuSans-46"/>
       <use x="179.199219" xlink:href="#DejaVuSans-48"/>
       <use x="242.822266" xlink:href="#DejaVuSans-48"/>
      </g>
     </g>
    </g>
    <g id="ytick_2">
     <g id="line2d_7">
      <g>
       <use style="stroke:#000000;stroke-width:0.8;" x="54" xlink:href="#m28486b19f1" y="217.600896"/>
      </g>
     </g>
     <g id="text_7">
      <!-- −0.75 -->
      <defs>
       <path d="M 8.203125 72.90625 
L 55.078125 72.90625 
L 55.078125 68.703125 
L 28.609375 0 
L 18.3125 0 
L 43.21875 64.59375 
L 8.203125 64.59375 
z
" id="DejaVuSans-55"/>
       <path d="M 10.796875 72.90625 
L 49.515625 72.90625 
L 49.515625 64.59375 
L 19.828125 64.59375 
L 19.828125 46.734375 
Q 21.96875 47.46875 24.109375 47.828125 
Q 26.265625 48.1875 28.421875 48.1875 
Q 40.625 48.1875 47.75 41.5 
Q 54.890625 34.8125 54.890625 23.390625 
Q 54.890625 11.625 47.5625 5.09375 
Q 40.234375 -1.421875 26.90625 -1.421875 
Q 22.3125 -1.421875 17.546875 -0.640625 
Q 12.796875 0.140625 7.71875 1.703125 
L 7.71875 11.625 
Q 12.109375 9.234375 16.796875 8.0625 
Q 21.484375 6.890625 26.703125 6.890625 
Q 35.15625 6.890625 40.078125 11.328125 
Q 45.015625 15.765625 45.015625 23.390625 
Q 45.015625 31 40.078125 35.4375 
Q 35.15625 39.890625 26.703125 39.890625 
Q 22.75 39.890625 18.8125 39.015625 
Q 14.890625 38.140625 10.796875 36.28125 
z
" id="DejaVuSans-53"/>
      </defs>
      <g transform="translate(16.354687 221.400114)scale(0.1 -0.1)">
       <use xlink:href="#DejaVuSans-8722"/>
       <use x="83.789062" xlink:href="#DejaVuSans-48"/>
       <use x="147.412109" xlink:href="#DejaVuSans-46"/>
       <use x="179.199219" xlink:href="#DejaVuSans-55"/>
       <use x="242.822266" xlink:href="#DejaVuSans-53"/>
      </g>
     </g>
    </g>
    <g id="ytick_3">
     <g id="line2d_8">
      <g>
       <use style="stroke:#000000;stroke-width:0.8;" x="54" xlink:href="#m28486b19f1" y="192.827264"/>
      </g>
     </g>
     <g id="text_8">
      <!-- −0.50 -->
      <g transform="translate(16.354687 196.626483)scale(0.1 -0.1)">
       <use xlink:href="#DejaVuSans-8722"/>
       <use x="83.789062" xlink:href="#DejaVuSans-48"/>
       <use x="147.412109" xlink:href="#DejaVuSans-46"/>
       <use x="179.199219" xlink:href="#DejaVuSans-53"/>
       <use x="242.822266" xlink:href="#DejaVuSans-48"/>
      </g>
     </g>
    </g>
    <g id="ytick_4">
     <g id="line2d_9">
      <g>
       <use style="stroke:#000000;stroke-width:0.8;" x="54" xlink:href="#m28486b19f1" y="168.053632"/>
      </g>
     </g>
     <g id="text_9">
      <!-- −0.25 -->
      <g transform="translate(16.354687 171.852851)scale(0.1 -0.1)">
       <use xlink:href="#DejaVuSans-8722"/>
       <use x="83.789062" xlink:href="#DejaVuSans-48"/>
       <use x="147.412109" xlink:href="#DejaVuSans-46"/>
       <use x="179.199219" xlink:href="#DejaVuSans-50"/>
       <use x="242.822266" xlink:href="#DejaVuSans-53"/>
      </g>
     </g>
    </g>
    <g id="ytick_5">
     <g id="line2d_10">
      <g>
       <use style="stroke:#000000;stroke-width:0.8;" x="54" xlink:href="#m28486b19f1" y="143.28"/>
      </g>
     </g>
     <g id="text_10">
      <!-- 0.00 -->
      <g transform="translate(24.734375 147.079219)scale(0.1 -0.1)">
       <use xlink:href="#DejaVuSans-48"/>
       <use x="63.623047" xlink:href="#DejaVuSans-46"/>
       <use x="95.410156" xlink:href="#DejaVuSans-48"/>
       <use x="159.033203" xlink:href="#DejaVuSans-48"/>
      </g>
     </g>
    </g>
    <g id="ytick_6">
     <g id="line2d_11">
      <g>
       <use style="stroke:#000000;stroke-width:0.8;" x="54" xlink:href="#m28486b19f1" y="118.506368"/>
      </g>
     </g>
     <g id="text_11">
      <!-- 0.25 -->
      <g transform="translate(24.734375 122.305587)scale(0.1 -0.1)">
       <use xlink:href="#DejaVuSans-48"/>
       <use x="63.623047" xlink:href="#DejaVuSans-46"/>
       <use x="95.410156" xlink:href="#DejaVuSans-50"/>
       <use x="159.033203" xlink:href="#DejaVuSans-53"/>
      </g>
     </g>
    </g>
    <g id="ytick_7">
     <g id="line2d_12">
      <g>
       <use style="stroke:#000000;stroke-width:0.8;" x="54" xlink:href="#m28486b19f1" y="93.732736"/>
      </g>
     </g>
     <g id="text_12">
      <!-- 0.50 -->
      <g transform="translate(24.734375 97.531955)scale(0.1 -0.1)">
       <use xlink:href="#DejaVuSans-48"/>
       <use x="63.623047" xlink:href="#DejaVuSans-46"/>
       <use x="95.410156" xlink:href="#DejaVuSans-53"/>
       <use x="159.033203" xlink:href="#DejaVuSans-48"/>
      </g>
     </g>
    </g>
    <g id="ytick_8">
     <g id="line2d_13">
      <g>
       <use style="stroke:#000000;stroke-width:0.8;" x="54" xlink:href="#m28486b19f1" y="68.959104"/>
      </g>
     </g>
     <g id="text_13">
      <!-- 0.75 -->
      <g transform="translate(24.734375 72.758323)scale(0.1 -0.1)">
       <use xlink:href="#DejaVuSans-48"/>
       <use x="63.623047" xlink:href="#DejaVuSans-46"/>
       <use x="95.410156" xlink:href="#DejaVuSans-55"/>
       <use x="159.033203" xlink:href="#DejaVuSans-53"/>
      </g>
     </g>
    </g>
    <g id="ytick_9">
     <g id="line2d_14">
      <g>
       <use style="stroke:#000000;stroke-width:0.8;" x="54" xlink:href="#m28486b19f1" y="44.185472"/>
      </g>
     </g>
     <g id="text_14">
      <!-- 1.00 -->
      <g transform="translate(24.734375 47.984691)scale(0.1 -0.1)">
       <use xlink:href="#DejaVuSans-49"/>
       <use x="63.623047" xlink:href="#DejaVuSans-46"/>
       <use x="95.410156" xlink:href="#DejaVuSans-48"/>
       <use x="159.033203" xlink:href="#DejaVuSans-48"/>
      </g>
     </g>
    </g>
   </g>
   <g id="line2d_15">
    <path clip-path="url(#padc488a33b)" d="M 69.218182 143.28 
L 70.132187 140.183401 
L 70.741523 138.871433 
L 71.046192 138.597571 
L 71.35086 138.616161 
L 71.655528 138.933323 
L 71.960197 139.536218 
L 72.569533 141.456342 
L 74.092875 147.378766 
L 74.702211 148.619986 
L 75.00688 148.764923 
L 75.311548 148.562945 
L 75.616216 148.018529 
L 76.225553 146.029217 
L 78.053563 138.027091 
L 78.358231 137.306004 
L 78.662899 136.949302 
L 78.967568 136.988446 
L 79.272236 137.43032 
L 79.576904 138.256213 
L 80.186241 140.862398 
L 81.709582 148.813266 
L 82.014251 149.829563 
L 82.318919 150.451286 
L 82.623587 150.62958 
L 82.928256 150.342809 
L 83.232924 149.598576 
L 83.84226 146.91355 
L 85.67027 136.254788 
L 85.974939 135.310811 
L 86.279607 134.85412 
L 86.584275 134.924836 
L 86.888943 135.530275 
L 87.193612 136.643744 
L 87.802948 140.125767 
L 89.32629 150.633296 
L 89.630958 151.959252 
L 89.935627 152.760621 
L 90.240295 152.974776 
L 90.544963 152.575231 
L 90.849631 151.574133 
L 91.458968 148.006901 
L 93.286978 134.030978 
L 93.591646 132.814861 
L 93.896314 132.240171 
L 94.200983 132.357182 
L 94.505651 133.173059 
L 94.810319 134.650495 
L 95.419656 139.229896 
L 96.942998 152.899554 
L 97.247666 154.602235 
L 97.552334 155.618416 
L 97.857002 155.869147 
L 98.161671 155.322712 
L 98.466339 153.997629 
L 99.075676 149.332616 
L 100.903686 131.293035 
L 101.208354 129.751249 
L 101.513022 129.040566 
L 101.81769 129.222859 
L 102.122359 130.304256 
L 102.427027 132.23364 
L 103.036364 138.162037 
L 104.559705 155.667981 
L 104.864373 157.819921 
L 105.169042 159.087563 
L 105.47371 159.37304 
L 105.778378 158.639237 
L 106.083047 156.913334 
L 106.692383 150.908324 
L 108.520393 127.986747 
L 108.825061 126.063206 
L 109.12973 125.199665 
L 109.434398 125.470905 
L 109.739066 126.880755 
L 110.043735 129.360528 
L 110.653071 136.915244 
L 112.176413 158.984317 
L 112.481081 161.661124 
L 112.785749 163.216705 
L 113.090418 163.531775 
L 113.395086 162.563956 
L 113.699754 160.351863 
L 114.309091 152.74308 
L 116.137101 124.072629 
L 116.441769 121.711061 
L 116.746437 120.680253 
L 117.051106 121.068944 
L 117.355774 122.876987 
L 117.660442 126.013821 
L 118.269779 135.490405 
L 119.79312 162.877956 
L 120.097789 166.155064 
L 120.402457 168.032827 
L 120.707125 168.368304 
L 121.011794 167.114372 
L 121.316462 164.324327 
L 121.925799 154.834499 
L 123.753808 119.532738 
L 124.058477 116.679654 
L 124.363145 115.471085 
L 124.667813 116.010384 
L 124.972482 118.29131 
L 125.581818 127.504005 
L 126.495823 148.338445 
L 127.409828 167.355537 
L 127.714496 171.30418 
L 128.019165 173.533751 
L 128.323833 173.875863 
L 128.628501 172.279619 
L 128.93317 168.816665 
L 129.542506 157.166181 
L 131.370516 114.377402 
L 131.675184 110.985551 
L 131.979853 109.594121 
L 132.284521 110.321212 
L 132.589189 113.151933 
L 133.198526 124.402157 
L 135.331204 177.077451 
L 135.635872 179.681282 
L 135.940541 180.011382 
L 136.245209 178.014557 
L 136.549877 173.784797 
L 137.159214 159.705754 
L 138.987224 108.651145 
L 139.291892 104.683262 
L 139.59656 103.110622 
L 139.901229 104.065581 
L 140.205897 107.52165 
L 140.815233 121.044313 
L 142.947912 183.405046 
L 143.25258 186.395876 
L 143.557248 186.690518 
L 143.861916 184.235481 
L 144.166585 179.151264 
L 144.775921 162.40389 
L 146.299263 109.506808 
L 146.9086 97.86958 
L 147.213268 96.125223 
L 147.517936 97.349347 
L 147.822604 101.500623 
L 148.431941 117.499571 
L 150.564619 190.175135 
L 150.869287 193.553698 
L 151.173956 193.785163 
L 151.478624 190.81823 
L 151.783292 184.804036 
L 152.392629 165.194578 
L 153.915971 103.946766 
L 154.525307 90.685213 
L 154.829975 88.787132 
L 155.134644 90.320767 
L 155.439312 95.226548 
L 156.048649 113.858151 
L 157.876658 190.137226 
L 158.181327 197.233645 
L 158.485995 200.986878 
L 158.790663 201.12418 
L 159.095332 197.599352 
L 159.4 190.598018 
L 160.009337 167.996865 
L 161.532678 98.186301 
L 161.837346 89.078562 
L 162.142015 83.313019 
L 162.446683 81.287805 
L 162.751351 83.16776 
L 163.05602 88.871696 
L 163.665356 110.228682 
L 165.493366 196.492403 
L 165.798034 204.387517 
L 166.102703 208.487488 
L 166.407371 208.49787 
L 166.712039 204.380766 
L 167.016708 196.359569 
L 167.626044 170.718119 
L 169.149386 92.388989 
L 169.454054 82.294695 
L 169.758722 75.972409 
L 170.063391 73.854704 
L 170.368059 76.111407 
L 170.672727 82.636591 
L 171.282064 106.733538 
L 173.110074 202.767277 
L 173.414742 211.411731 
L 173.71941 215.815487 
L 174.024079 215.666332 
L 174.328747 210.937995 
L 174.633415 201.894063 
L 175.242752 173.258724 
L 176.766093 86.742621 
L 177.070762 75.731106 
L 177.37543 68.909905 
L 177.680098 66.741168 
L 177.984767 69.395791 
L 178.289435 76.740478 
L 178.898771 103.502423 
L 180.726781 208.745195 
L 181.03145 218.059962 
L 181.336118 222.710408 
L 181.640786 222.371446 
L 181.945455 217.031675 
L 182.250123 206.996163 
L 182.859459 175.51791 
L 184.382801 81.449893 
L 184.687469 69.62706 
L 184.992138 62.386225 
L 185.296806 60.212855 
L 185.601474 63.274659 
L 185.906143 71.409077 
L 186.515479 100.664618 
L 188.343489 214.200568 
L 188.648157 224.078293 
L 188.952826 228.906122 
L 189.257494 228.35176 
L 189.562162 222.4216 
L 189.86683 211.462117 
L 190.476167 177.400268 
L 191.999509 76.716769 
L 192.304177 64.222901 
L 192.608845 56.660755 
L 192.913514 54.531689 
L 193.218182 57.995867 
L 193.52285 66.860519 
L 194.132187 98.340513 
L 195.960197 218.912686 
L 196.264865 229.220988 
L 196.569533 234.147587 
L 196.874201 233.359142 
L 197.17887 226.882225 
L 197.483538 215.103101 
L 198.092875 178.822387 
L 199.616216 72.739393 
L 199.920885 59.744565 
L 200.225553 51.974641 
L 200.530221 49.93861 
L 200.834889 53.784885 
L 201.139558 63.290667 
L 201.748894 96.633181 
L 203.576904 222.68039 
L 203.881572 233.267004 
L 204.186241 238.208139 
L 204.490909 237.175751 
L 204.795577 230.218231 
L 205.100246 217.758403 
L 205.709582 179.718958 
L 207.232924 69.690693 
L 207.537592 56.387996 
L 207.84226 48.534025 
L 208.146929 46.636696 
L 208.451597 50.828877 
L 208.756265 60.859162 
L 209.365602 95.62081 
L 211.193612 225.336265 
L 211.49828 236.035703 
L 211.802948 240.905713 
L 212.107617 239.629727 
L 212.412285 232.278687 
L 212.716953 219.307167 
L 213.32629 180.047743 
L 214.849631 67.707935 
L 215.1543 54.304952 
L 215.458968 46.495025 
L 215.763636 44.776286 
L 216.068305 49.262923 
L 216.372973 59.6776 
L 216.98231 95.350775 
L 218.810319 226.758964 
L 219.114988 237.400216 
L 219.419656 242.116364 
L 219.724324 240.608008 
L 220.028993 232.968367 
L 220.638329 201.572149 
L 222.771007 53.591633 
L 223.075676 45.951992 
L 223.380344 44.443636 
L 223.685012 49.159784 
L 223.989681 59.801036 
L 224.599017 95.835961 
L 226.427027 226.8824 
L 226.731695 237.297077 
L 227.036364 241.783714 
L 227.341032 240.064975 
L 227.6457 232.255048 
L 228.255037 200.706286 
L 230.387715 54.281313 
L 230.692383 46.930273 
L 230.997052 45.654287 
L 231.30172 50.524297 
L 231.606388 61.223735 
L 232.215725 97.053744 
L 233.739066 210.453066 
L 234.348403 235.731123 
L 234.653071 239.923304 
L 234.95774 238.025975 
L 235.262408 230.172004 
L 235.871744 198.967976 
L 238.004423 56.341769 
L 238.309091 49.384249 
L 238.613759 48.351861 
L 238.918428 53.292996 
L 239.223096 63.87961 
L 239.832432 98.947744 
L 241.355774 208.685228 
L 241.965111 232.775115 
L 242.269779 236.62139 
L 242.574447 234.585359 
L 242.879115 226.815435 
L 243.488452 196.437101 
L 245.316462 71.456899 
L 245.62113 59.677775 
L 245.925799 53.200858 
L 246.230467 52.412413 
L 246.535135 57.339012 
L 246.839803 67.647314 
L 247.44914 101.432146 
L 248.972482 205.969514 
L 249.581818 228.564133 
L 249.886486 232.028311 
L 250.191155 229.899245 
L 250.495823 222.337099 
L 251.10516 193.226994 
L 252.93317 75.097883 
L 253.237838 64.1384 
L 253.542506 58.20824 
L 253.847174 57.653878 
L 254.151843 62.481707 
L 254.456511 72.359432 
L 255.065848 104.398153 
L 256.589189 202.42839 
L 257.198526 223.285341 
L 257.503194 226.347145 
L 257.807862 224.173775 
L 258.112531 216.93294 
L 258.721867 189.476033 
L 260.549877 79.563837 
L 260.854545 69.528325 
L 261.159214 64.188554 
L 261.463882 63.849592 
L 261.76855 68.500038 
L 262.073219 77.814805 
L 262.682555 107.721868 
L 264.205897 198.215994 
L 264.510565 209.819522 
L 264.815233 217.164209 
L 265.119902 219.818832 
L 265.42457 217.650095 
L 265.729238 210.828894 
L 266.338575 185.337774 
L 268.166585 84.665937 
L 268.471253 75.622005 
L 268.775921 70.893668 
L 269.08059 70.744513 
L 269.385258 75.148269 
L 269.689926 83.792723 
L 270.299263 111.272827 
L 271.822604 193.507032 
L 272.127273 203.923409 
L 272.431941 210.448593 
L 272.736609 212.705296 
L 273.041278 210.587591 
L 273.345946 204.265305 
L 273.955283 180.970607 
L 275.783292 90.200431 
L 276.087961 82.179234 
L 276.392629 78.06213 
L 276.697297 78.072512 
L 277.001966 82.172483 
L 277.306634 90.067597 
L 277.915971 114.922374 
L 279.439312 188.484839 
L 279.74398 197.688304 
L 280.048649 203.39224 
L 280.353317 205.272195 
L 280.657985 203.246981 
L 280.962654 197.481438 
L 281.57199 176.527898 
L 283.4 95.961982 
L 283.704668 88.960648 
L 284.009337 85.43582 
L 284.314005 85.573122 
L 284.618673 89.326355 
L 284.923342 96.422774 
L 285.532678 118.551124 
L 287.05602 183.329733 
L 287.360688 191.333452 
L 287.665356 196.239233 
L 287.970025 197.772868 
L 288.274693 195.874787 
L 288.579361 190.701462 
L 289.188698 172.14944 
L 291.016708 101.755964 
L 291.321376 95.74177 
L 291.626044 92.774837 
L 291.930713 93.006302 
L 292.235381 96.384865 
L 292.540049 102.662333 
L 293.149386 122.054961 
L 294.672727 178.208668 
L 294.977396 185.059377 
L 295.282064 189.210653 
L 295.586732 190.434777 
L 295.8914 188.69042 
L 296.196069 184.122981 
L 296.805405 167.954849 
L 298.633415 107.408736 
L 298.938084 102.324519 
L 299.242752 99.869482 
L 299.54742 100.164124 
L 299.852088 103.154954 
L 300.156757 108.620058 
L 300.766093 125.349192 
L 302.289435 173.266965 
L 302.594103 179.03835 
L 302.898771 182.494419 
L 303.20344 183.449378 
L 303.508108 181.876738 
L 303.812776 177.908855 
L 304.422113 164.039242 
L 306.250123 112.775203 
L 306.554791 108.545443 
L 306.859459 106.548618 
L 307.164128 106.878718 
L 307.468796 109.482549 
L 307.773464 114.165126 
L 308.382801 128.370747 
L 309.906143 168.622617 
L 310.210811 173.408067 
L 310.515479 176.238788 
L 310.820147 176.965879 
L 311.124816 175.574449 
L 311.429484 172.182598 
L 312.038821 160.471275 
L 313.86683 117.743335 
L 314.171499 114.280381 
L 314.476167 112.684137 
L 314.780835 113.026249 
L 315.085504 115.25582 
L 315.390172 119.204463 
L 315.999509 131.07848 
L 317.52285 164.363332 
L 317.827518 168.26869 
L 318.132187 170.549616 
L 318.436855 171.088915 
L 318.741523 169.880346 
L 319.046192 167.027262 
L 319.655528 157.293385 
L 321.17887 126.409844 
L 321.788206 119.445628 
L 322.092875 118.191696 
L 322.397543 118.527173 
L 322.702211 120.404936 
L 323.311548 128.13028 
L 325.444226 163.683013 
L 325.748894 165.491056 
L 326.053563 165.879747 
L 326.358231 164.848939 
L 326.662899 162.487371 
L 327.272236 154.523852 
L 328.795577 129.545909 
L 329.404914 123.996044 
L 329.709582 123.028225 
L 330.014251 123.343295 
L 330.318919 124.898876 
L 330.928256 131.186361 
L 332.756265 157.199472 
L 333.060934 159.679245 
L 333.365602 161.089095 
L 333.67027 161.360335 
L 333.974939 160.496794 
L 334.279607 158.573253 
L 334.888943 152.160204 
L 336.412285 132.273696 
L 337.021622 127.920763 
L 337.32629 127.18696 
L 337.630958 127.472437 
L 337.935627 128.740079 
L 338.544963 133.776915 
L 340.372973 154.32636 
L 340.677641 156.255744 
L 340.98231 157.337141 
L 341.286978 157.519434 
L 341.591646 156.808751 
L 341.896314 155.266965 
L 342.505651 150.183433 
L 344.028993 134.597508 
L 344.638329 131.237288 
L 344.942998 130.690853 
L 345.247666 130.941584 
L 345.552334 131.957765 
L 346.161671 135.929332 
L 347.989681 151.909505 
L 348.294349 153.386941 
L 348.599017 154.202818 
L 348.903686 154.319829 
L 349.208354 153.745139 
L 349.513022 152.529022 
L 350.122359 148.562509 
L 351.6457 136.537682 
L 352.255037 133.984769 
L 352.559705 133.585224 
L 352.864373 133.799379 
L 353.169042 134.600748 
L 353.778378 137.683162 
L 355.606388 149.916256 
L 355.911057 151.029725 
L 356.215725 151.635164 
L 356.520393 151.70588 
L 356.825061 151.249189 
L 357.12973 150.305212 
L 357.739066 147.258752 
L 359.262408 138.126095 
L 359.871744 136.217191 
L 360.176413 135.93042 
L 360.481081 136.108714 
L 360.785749 136.730437 
L 361.395086 139.085196 
L 363.223096 148.303787 
L 363.527764 149.12968 
L 363.832432 149.571554 
L 364.137101 149.610698 
L 364.441769 149.253996 
L 364.746437 148.532909 
L 365.355774 146.229737 
L 366.879115 139.401832 
L 367.488452 137.997055 
L 367.79312 137.795077 
L 368.097789 137.940014 
L 368.402457 138.41456 
L 369.011794 140.185199 
L 370.839803 147.023782 
L 371.144472 147.626677 
L 371.44914 147.943839 
L 371.753808 147.962429 
L 372.058477 147.688567 
L 372.363145 147.146491 
L 372.972482 145.432525 
L 373.581818 143.28 
L 373.581818 143.28 
" style="fill:none;stroke:#1f77b4;stroke-linecap:square;stroke-width:1.5;"/>
   </g>
   <g id="patch_3">
    <path d="M 54 252 
L 54 34.56 
" style="fill:none;stroke:#000000;stroke-linecap:square;stroke-linejoin:miter;stroke-width:0.8;"/>
   </g>
   <g id="patch_4">
    <path d="M 388.8 252 
L 388.8 34.56 
" style="fill:none;stroke:#000000;stroke-linecap:square;stroke-linejoin:miter;stroke-width:0.8;"/>
   </g>
   <g id="patch_5">
    <path d="M 54 252 
L 388.8 252 
" style="fill:none;stroke:#000000;stroke-linecap:square;stroke-linejoin:miter;stroke-width:0.8;"/>
   </g>
   <g id="patch_6">
    <path d="M 54 34.56 
L 388.8 34.56 
" style="fill:none;stroke:#000000;stroke-linecap:square;stroke-linejoin:miter;stroke-width:0.8;"/>
   </g>
  </g>
 </g>
 <defs>
  <clipPath id="padc488a33b">
   <rect height="217.44" width="334.8" x="54" y="34.56"/>
  </clipPath>
 </defs>
</svg>
