<?xml version="1.0" encoding="utf-8" standalone="no"?>
<!DOCTYPE svg PUBLIC "-//W3C//DTD SVG 1.1//EN"
  "http://www.w3.org/Graphics/SVG/1.1/DTD/svg11.dtd">
<!-- Created with matplotlib (https://matplotlib.org/) -->
<svg height="288pt" version="1.1" viewBox="0 0 432 288" width="432pt" xmlns="http://www.w3.org/2000/svg" xmlns:xlink="http://www.w3.org/1999/xlink">
 <defs>
  <style type="text/css">
*{stroke-linecap:butt;stroke-linejoin:round;}
  </style>
 </defs>
 <g id="figure_1">
  <g id="patch_1">
   <path d="M 0 288 
L 432 288 
L 432 0 
L 0 0 
z
" style="fill:#ffffff;"/>
  </g>
  <g id="axes_1">
   <g id="line2d_1">
    <path clip-path="url(#p8f996799af)" d="M 69.218182 143.28 
L 111.871744 143.374236 
L 113.395086 143.451836 
L 114.918428 143.271766 
L 116.746437 143.011269 
L 117.965111 143.109006 
L 121.011794 143.683805 
L 121.925799 143.490782 
L 124.363145 142.664155 
L 124.972482 142.699562 
L 125.886486 143.046038 
L 128.019165 144.168089 
L 128.628501 144.171274 
L 129.237838 143.936188 
L 130.151843 143.224212 
L 131.370516 142.191881 
L 131.979853 141.954405 
L 132.589189 142.041126 
L 133.198526 142.469094 
L 134.112531 143.569672 
L 135.026536 144.703104 
L 135.635872 145.13643 
L 135.940541 145.193243 
L 136.245209 145.127707 
L 136.854545 144.626753 
L 137.463882 143.709048 
L 138.987224 141.06136 
L 139.59656 140.599997 
L 139.901229 140.610482 
L 140.205897 140.796417 
L 140.815233 141.672755 
L 141.729238 143.875395 
L 142.643243 146.098821 
L 143.25258 146.924895 
L 143.557248 147.021088 
L 143.861916 146.877804 
L 144.166585 146.4919 
L 144.775921 145.05858 
L 146.9086 138.46816 
L 147.213268 138.190855 
L 147.517936 138.231613 
L 147.822604 138.603615 
L 148.127273 139.298966 
L 148.736609 141.521008 
L 150.259951 148.524138 
L 150.564619 149.441571 
L 150.869287 150.001657 
L 151.173956 150.150851 
L 151.478624 149.859977 
L 151.783292 149.127293 
L 152.392629 146.47329 
L 154.220639 135.637299 
L 154.525307 134.662231 
L 154.829975 134.203061 
L 155.134644 134.312811 
L 155.439312 135.009695 
L 155.74398 136.274385 
L 156.353317 140.24226 
L 157.876658 152.443407 
L 158.181327 153.997408 
L 158.485995 154.922667 
L 158.790663 155.132443 
L 159.095332 154.582992 
L 159.4 153.278237 
L 160.009337 148.664041 
L 161.837346 130.367901 
L 162.142015 128.783522 
L 162.446683 128.07386 
L 162.751351 128.319577 
L 163.05602 129.542348 
L 163.360688 131.701135 
L 163.970025 138.354514 
L 165.493366 158.318904 
L 165.798034 160.789373 
L 166.102703 162.221459 
L 166.407371 162.483921 
L 166.712039 161.516634 
L 167.016708 159.337114 
L 167.626044 151.804731 
L 169.454054 122.790705 
L 169.758722 120.375848 
L 170.063391 119.353256 
L 170.368059 119.836892 
L 170.672727 121.846999 
L 170.977396 125.305588 
L 171.586732 135.781896 
L 173.110074 166.462058 
L 173.414742 170.147919 
L 173.71941 172.224043 
L 174.024079 172.505144 
L 174.328747 170.916179 
L 174.633415 167.500709 
L 175.242752 155.955134 
L 177.070762 112.742217 
L 177.37543 109.29009 
L 177.680098 107.918288 
L 177.984767 108.775939 
L 178.289435 111.872544 
L 178.898771 124.103802 
L 179.812776 151.681458 
L 180.726781 176.843297 
L 181.03145 182.003995 
L 181.336118 184.822233 
L 181.640786 185.054191 
L 181.945455 182.616279 
L 182.250123 177.59478 
L 182.859459 160.97787 
L 184.687469 100.530753 
L 184.992138 95.902738 
L 185.296806 94.192831 
L 185.601474 95.581043 
L 185.906143 100.052343 
L 186.515479 117.19961 
L 188.648157 195.701457 
L 188.952826 199.282237 
L 189.257494 199.364658 
L 189.562162 195.868453 
L 189.86683 188.941517 
L 190.476167 166.485073 
L 191.999509 96.294876 
L 192.304177 87.071753 
L 192.608845 81.253952 
L 192.913514 79.278858 
L 193.218182 81.345715 
L 193.52285 87.3983 
L 194.132187 109.967978 
L 195.960197 201.573641 
L 196.264865 209.933184 
L 196.569533 214.189727 
L 196.874201 214.003652 
L 197.17887 209.314252 
L 197.483538 200.348167 
L 198.092875 171.851639 
L 199.616216 84.9753 
L 199.920885 73.865154 
L 200.225553 67.008462 
L 200.530221 64.902307 
L 200.834889 67.746974 
L 201.139558 75.428988 
L 201.748894 103.320341 
L 203.576904 213.210326 
L 203.881572 222.880477 
L 204.186241 227.611762 
L 204.490909 227.046398 
L 204.795577 221.160683 
L 205.100246 210.270269 
L 205.709582 176.314995 
L 207.232924 75.325355 
L 207.537592 62.763375 
L 207.84226 55.188258 
L 208.146929 53.126573 
L 208.451597 56.758096 
L 208.756265 65.901257 
L 209.365602 98.263169 
L 211.193612 222.072991 
L 211.49828 232.568083 
L 211.802948 237.482296 
L 212.107617 236.467897 
L 212.412285 229.552374 
L 212.716953 217.139002 
L 213.32629 179.147132 
L 214.849631 68.891218 
L 215.1543 55.559767 
L 215.458968 47.716459 
L 215.763636 45.880438 
L 216.068305 50.190946 
L 216.372973 60.397002 
L 216.98231 95.652381 
L 218.810319 226.664915 
L 219.114988 237.350716 
L 219.419656 242.116364 
L 219.724324 240.651903 
L 220.028993 233.042539 
L 220.638329 201.651055 
L 222.771007 53.517461 
L 223.075676 45.908097 
L 223.380344 44.443636 
L 223.685012 49.209284 
L 223.989681 59.895085 
L 224.599017 95.957031 
L 226.427027 226.162998 
L 226.731695 236.369054 
L 227.036364 240.679562 
L 227.341032 238.843541 
L 227.6457 231.000233 
L 228.255037 199.713745 
L 230.387715 57.007626 
L 230.692383 50.092103 
L 230.997052 49.077704 
L 231.30172 53.991917 
L 231.606388 64.487009 
L 232.215725 99.121676 
L 233.739066 206.538362 
L 234.348403 229.801904 
L 234.653071 233.433427 
L 234.95774 231.371742 
L 235.262408 223.796625 
L 235.871744 194.522689 
L 237.699754 76.289731 
L 238.004423 65.399317 
L 238.309091 59.513602 
L 238.613759 58.948238 
L 238.918428 63.679523 
L 239.223096 73.349674 
L 239.832432 104.582856 
L 241.355774 199.035894 
L 241.660442 211.131012 
L 241.965111 218.813026 
L 242.269779 221.657693 
L 242.574447 219.551538 
L 242.879115 212.694846 
L 243.488452 186.97943 
L 245.316462 86.211833 
L 245.62113 77.245748 
L 245.925799 72.556348 
L 246.230467 72.370273 
L 246.535135 76.626816 
L 246.839803 84.986359 
L 247.44914 111.432955 
L 248.972482 189.43624 
L 249.27715 199.1617 
L 249.581818 205.214285 
L 249.886486 207.281142 
L 250.191155 205.306048 
L 250.495823 199.488247 
L 251.10516 178.280119 
L 252.93317 97.618483 
L 253.237838 90.691547 
L 253.542506 87.195342 
L 253.847174 87.277763 
L 254.151843 90.858543 
L 254.456511 97.639092 
L 255.065848 118.666046 
L 256.589189 179.167015 
L 256.893857 186.507657 
L 257.198526 190.978957 
L 257.503194 192.367169 
L 257.807862 190.657262 
L 258.112531 186.029247 
L 258.721867 169.607656 
L 260.549877 108.96522 
L 260.854545 103.943721 
L 261.159214 101.505809 
L 261.463882 101.737767 
L 261.76855 104.556005 
L 262.073219 109.716703 
L 262.682555 125.414563 
L 264.205897 169.486676 
L 264.510565 174.687456 
L 264.815233 177.784061 
L 265.119902 178.641712 
L 265.42457 177.26991 
L 265.729238 173.817783 
L 266.338575 161.879566 
L 267.861916 124.138209 
L 268.471253 115.643821 
L 268.775921 114.054856 
L 269.08059 114.335957 
L 269.385258 116.412081 
L 269.994595 125.113055 
L 271.822604 161.254412 
L 272.127273 164.713001 
L 272.431941 166.723108 
L 272.736609 167.206744 
L 273.041278 166.184152 
L 273.345946 163.769295 
L 273.955283 155.620716 
L 275.478624 130.517779 
L 276.087961 125.043366 
L 276.392629 124.076079 
L 276.697297 124.338541 
L 277.001966 125.770627 
L 277.611302 131.558373 
L 279.439312 154.858865 
L 279.74398 157.017652 
L 280.048649 158.240423 
L 280.353317 158.48614 
L 280.657985 157.776478 
L 280.962654 156.192099 
L 281.57199 150.969954 
L 283.095332 135.288507 
L 283.704668 131.977008 
L 284.009337 131.427557 
L 284.314005 131.637333 
L 284.618673 132.562592 
L 285.22801 136.176778 
L 287.05602 150.285615 
L 287.360688 151.550305 
L 287.665356 152.247189 
L 287.970025 152.356939 
L 288.274693 151.897769 
L 288.579361 150.922701 
L 289.188698 147.780409 
L 290.712039 138.580103 
L 291.321376 136.700023 
L 291.626044 136.409149 
L 291.930713 136.558343 
L 292.235381 137.118429 
L 292.844717 139.237185 
L 294.672727 147.261034 
L 294.977396 147.956385 
L 295.282064 148.328387 
L 295.586732 148.369145 
L 295.8914 148.09184 
L 296.196069 147.528904 
L 296.805405 145.753568 
L 298.328747 140.68398 
L 298.938084 139.682196 
L 299.242752 139.538912 
L 299.54742 139.635105 
L 299.852088 139.952825 
L 300.461425 141.118911 
L 302.289435 145.404786 
L 302.594103 145.763583 
L 302.898771 145.949518 
L 303.20344 145.960003 
L 303.508108 145.803547 
L 304.117445 145.072078 
L 306.250123 141.622913 
L 306.859459 141.366757 
L 307.468796 141.592507 
L 308.078133 142.195021 
L 309.906143 144.345135 
L 310.515479 144.605858 
L 311.124816 144.52307 
L 311.734152 144.154542 
L 313.86683 142.47702 
L 314.476167 142.360975 
L 315.085504 142.476121 
L 315.999509 142.95355 
L 317.218182 143.66424 
L 318.132187 143.898508 
L 319.046192 143.78124 
L 322.092875 142.865362 
L 323.00688 142.97946 
L 325.748894 143.551005 
L 326.967568 143.452558 
L 329.404914 143.108164 
L 330.928256 143.185764 
L 333.365602 143.391531 
L 335.49828 143.282771 
L 337.935627 143.220334 
L 342.810319 143.289506 
L 346.771007 143.276977 
L 353.169042 143.272297 
L 373.581818 143.28 
L 373.581818 143.28 
" style="fill:none;stroke:#ff8c00;stroke-linecap:square;stroke-width:1.5;"/>
   </g>
  </g>
 </g>
 <defs>
  <clipPath id="p8f996799af">
   <rect height="217.44" width="334.8" x="54" y="34.56"/>
  </clipPath>
 </defs>
</svg>
