<?xml version="1.0" encoding="UTF-8" standalone="no"?>
<svg
   xmlns:dc="http://purl.org/dc/elements/1.1/"
   xmlns:cc="http://creativecommons.org/ns#"
   xmlns:rdf="http://www.w3.org/1999/02/22-rdf-syntax-ns#"
   xmlns:svg="http://www.w3.org/2000/svg"
   xmlns="http://www.w3.org/2000/svg"
   xmlns:sodipodi="http://sodipodi.sourceforge.net/DTD/sodipodi-0.dtd"
   xmlns:inkscape="http://www.inkscape.org/namespaces/inkscape"
   inkscape:version="1.0beta1 (76ce730, 2019-10-19)"
   sodipodi:docname="wave_1fr.svg"
   id="svg1111"
   width="305.86578pt"
   viewBox="0 0 305.86578 199.17247"
   version="1.1"
   height="199.17247pt">
  <metadata
     id="metadata1115">
    <rdf:RDF>
      <cc:Work
         rdf:about="">
        <dc:format>image/svg+xml</dc:format>
        <dc:type
           rdf:resource="http://purl.org/dc/dcmitype/StillImage" />
        <dc:title></dc:title>
      </cc:Work>
    </rdf:RDF>
  </metadata>
  <sodipodi:namedview
     fit-margin-bottom="0"
     fit-margin-right="0"
     fit-margin-left="0"
     fit-margin-top="0"
     inkscape:current-layer="line2d_15"
     inkscape:window-maximized="0"
     inkscape:window-y="147"
     inkscape:window-x="0"
     inkscape:cy="172.67507"
     inkscape:cx="184.54159"
     inkscape:zoom="1.2271704"
     showgrid="false"
     id="namedview1113"
     inkscape:window-height="792"
     inkscape:window-width="1440"
     inkscape:pageshadow="2"
     inkscape:pageopacity="0"
     guidetolerance="10"
     gridtolerance="10"
     objecttolerance="10"
     borderopacity="1"
     inkscape:document-rotation="0"
     bordercolor="#666666"
     pagecolor="#ffffff" />
  <defs
     id="defs835">
    <style
       id="style833"
       type="text/css">
*{stroke-linecap:butt;stroke-linejoin:round;}
  </style>
  </defs>
  <g
     transform="translate(-78.244899,-43.082841)"
     id="figure_1">
    <g
       id="axes_1">
      <g
         style="opacity:1;fill:none;fill-opacity:1"
         transform="translate(9.778594,-0.611162)"
         id="line2d_15">
        <path
           inkscape:connector-curvature="0"
           id="path1089"
           style="fill:none;stroke:#ee7718;stroke-width:1.5;stroke-linecap:square;fill-opacity:1;stroke-opacity:1"
           d="m 69.218182,143.28 40.520888,0.10156 3.35135,0.0174 3.04668,-0.2445 3.04668,-0.2209 1.82801,0.0998 1.82801,0.32421 3.35135,0.66921 1.21868,0.0102 1.21867,-0.21358 1.21867,-0.43479 3.96069,-1.69189 0.91401,-0.0437 0.914,0.21197 0.91401,0.48012 0.914,0.71868 3.65602,3.25089 0.60934,0.19074 0.60933,-0.0128 0.60934,-0.23775 0.60934,-0.47036 0.914,-1.1196 0.91401,-1.52324 2.74201,-4.90536 0.60934,-0.64964 0.60934,-0.32283 0.60933,0.0589 0.60934,0.47399 0.60934,0.89669 0.60933,1.29802 0.91401,2.57871 3.04668,9.65116 0.60934,1.0925 0.60933,0.50756 0.30467,0.006 0.30467,-0.16989 0.30467,-0.35037 0.60933,-1.24614 0.60934,-1.94907 0.91401,-4.06683 1.52334,-8.56972 1.21867,-6.55908 0.60934,-2.52339 0.60933,-1.72128 0.30467,-0.50167 0.30467,-0.23747 0.30467,0.0407 0.30467,0.32872 0.30467,0.62203 0.60933,2.1212 0.60934,3.23595 0.914,6.62459 1.52335,13.64416 1.21867,10.18512 0.60934,3.82858 0.60933,2.54001 0.30467,0.70284 0.30467,0.29024 0.30467,-0.14074 0.30466,-0.58341 0.30467,-1.03072 0.60934,-3.38491 0.60934,-5.04292 0.914,-10.13349 3.04668,-38.19471 0.60934,-4.53018 0.30467,-1.48767 0.30467,-0.91411 0.30467,-0.30948 0.30466,0.317 0.30467,0.95544 0.30467,1.5955 0.60934,5.06443 0.60933,7.37705 0.91401,14.55662 2.74201,48.98519 0.60934,7.27848 0.60934,4.53788 0.30467,1.1003 0.30466,0.26897 0.30467,-0.58554 0.30467,-1.44952 0.60934,-5.45814 0.60933,-8.67209 0.91401,-18.03097 1.52334,-37.3003 1.21867,-27.944341 0.60934,-10.679299 0.60934,-7.379838 0.30466,-2.254619 0.30467,-1.220334 0.30467,-0.14785 0.30467,0.94579 0.30467,2.042894 0.60933,7.300626 0.60934,11.28027 0.91401,22.986771 3.04668,87.2091 0.60934,10.71492 0.60933,6.2079 0.30467,1.23875 0.30467,-0.0595 0.30467,-1.37285 0.30467,-2.67999 0.60933,-9.1489 0.60934,-13.77018 0.914,-27.51734 2.74202,-93.063053 0.60934,-14.137922 0.60933,-9.269318 0.30467,-2.583382 0.30467,-1.138255 0.30467,0.336262 0.30466,1.816246 0.30467,3.277504 0.60934,10.74418 0.60934,15.776328 0.914,30.93204 2.74202,101.17731 0.60933,14.7865 0.60934,9.4171 0.30467,2.48049 0.30467,0.92803 0.30466,-0.64342 0.30467,-2.20825 0.30467,-3.74093 0.60934,-11.82671 0.60933,-16.96434 0.91401,-32.65039 2.43735,-94.25503 0.60933,-16.964342 0.60934,-11.826712 0.30467,-3.740925 0.30467,-2.208255 0.30466,-0.64342 0.30467,0.92803 0.30467,2.48049 0.60934,9.4171 0.60933,14.786504 0.91401,30.02028 3.04668,110.55386 0.60934,13.35973 0.60933,7.97349 0.30467,1.81625 0.30467,0.33626 0.30467,-1.13826 0.30467,-2.58338 0.60933,-9.26932 0.60934,-14.13792 0.91401,-28.1217 2.74201,-92.458689 0.60934,-13.770186 0.60933,-9.148894 0.30467,-2.679991 0.30467,-1.372849 0.30467,-0.05947 0.30467,1.238751 0.30467,2.500915 0.60933,8.545071 0.60934,12.684381 0.914,24.734921 2.43735,71.7006 0.60934,13.05861 0.60933,9.34968 0.60934,5.1683 0.30467,0.94579 0.30467,-0.14785 0.30466,-1.22033 0.30467,-2.25462 0.60934,-7.37984 0.60934,-10.6793 0.914,-20.42805 2.43735,-57.43322 0.60933,-10.13017 0.60934,-7.105516 0.30467,-2.308884 0.30467,-1.449526 0.30467,-0.585533 0.30466,0.268965 0.30467,1.100299 0.30467,1.895479 0.60934,5.972403 0.60933,8.437813 0.91401,15.84151 2.13268,38.76385 0.914,11.82417 0.60934,5.06443 0.30467,1.5955 0.30466,0.95544 0.30467,0.317 0.30467,-0.30948 0.30467,-0.91411 0.60934,-3.50935 0.60933,-5.45006 0.91401,-10.80852 2.43734,-31.50308 0.91401,-8.11796 0.60934,-3.38491 0.30466,-1.03072 0.30467,-0.58341 0.30467,-0.14074 0.30467,0.29024 0.30467,0.70284 0.60933,2.54001 0.60934,3.82858 0.91401,7.43778 2.43734,21.01959 0.60934,3.74717 0.60934,2.69059 0.60933,1.53792 0.30467,0.32872 0.30467,0.0407 0.30467,-0.23747 0.30466,-0.50167 0.60934,-1.72128 0.60934,-2.52339 0.914,-4.80547 2.13268,-11.81179 0.91401,-3.63737 0.60933,-1.60362 0.60934,-0.88296 0.30467,-0.16989 0.30467,0.006 0.30467,0.17443 0.60933,0.81297 0.60934,1.34265 0.914,2.72181 2.43735,7.99349 0.914,2.0826 0.60934,0.89669 0.60934,0.47399 0.60933,0.0589 0.60934,-0.32284 0.60934,-0.64963 0.914,-1.42933 3.04669,-5.42391 0.914,-0.95911 0.60934,-0.35403 0.60933,-0.12342 0.60934,0.0924 0.60934,0.28097 0.914,0.69319 3.65602,3.30335 0.91401,0.39183 0.914,0.12347 0.91401,-0.12005 1.21867,-0.4411 3.65602,-1.62141 1.21867,-0.21358 1.21867,0.0102 1.52335,0.2458 3.96068,0.78083 1.82801,0.0613 2.43735,-0.18397 3.65602,-0.28706 3.04668,0.0282 6.70271,0.15257 13.71007,-0.0437 20.10811,-0.007 v 0"
           clip-path="url(#pd1d55b7502)" />
      </g>
      <g
         id="patch_5" />
    </g>
  </g>
  <defs
     id="defs1109">
    <clipPath
       id="pd1d55b7502">
      <rect
         id="rect1106"
         y="34.560001"
         x="54"
         width="334.79999"
         height="217.44" />
    </clipPath>
  </defs>
</svg>
