<?xml version="1.0" encoding="utf-8" standalone="no"?>
<!DOCTYPE svg PUBLIC "-//W3C//DTD SVG 1.1//EN"
  "http://www.w3.org/Graphics/SVG/1.1/DTD/svg11.dtd">
<!-- Created with matplotlib (https://matplotlib.org/) -->
<svg height="288pt" version="1.1" viewBox="0 0 432 288" width="432pt" xmlns="http://www.w3.org/2000/svg" xmlns:xlink="http://www.w3.org/1999/xlink">
 <defs>
  <style type="text/css">
*{stroke-linecap:butt;stroke-linejoin:round;}
  </style>
 </defs>
 <g id="figure_1">
  <g id="patch_1">
   <path d="M 0 288 
L 432 288 
L 432 0 
L 0 0 
z
" style="fill:#ffffff;"/>
  </g>
  <g id="axes_1">
   <g id="patch_2">
    <path d="M 54 252 
L 388.8 252 
L 388.8 34.56 
L 54 34.56 
z
" style="fill:#ffffff;"/>
   </g>
   <g id="matplotlib.axis_1">
    <g id="xtick_1">
     <g id="line2d_1">
      <defs>
       <path d="M 0 0 
L 0 3.5 
" id="mee7164ad5b" style="stroke:#000000;stroke-width:0.8;"/>
      </defs>
      <g>
       <use style="stroke:#000000;stroke-width:0.8;" x="99.654545" xlink:href="#mee7164ad5b" y="252"/>
      </g>
     </g>
     <g id="text_1">
      <!-- −4 -->
      <defs>
       <path d="M 10.59375 35.5 
L 73.1875 35.5 
L 73.1875 27.203125 
L 10.59375 27.203125 
z
" id="DejaVuSans-8722"/>
       <path d="M 37.796875 64.3125 
L 12.890625 25.390625 
L 37.796875 25.390625 
z
M 35.203125 72.90625 
L 47.609375 72.90625 
L 47.609375 25.390625 
L 58.015625 25.390625 
L 58.015625 17.1875 
L 47.609375 17.1875 
L 47.609375 0 
L 37.796875 0 
L 37.796875 17.1875 
L 4.890625 17.1875 
L 4.890625 26.703125 
z
" id="DejaVuSans-52"/>
      </defs>
      <g transform="translate(92.283452 266.598437)scale(0.1 -0.1)">
       <use xlink:href="#DejaVuSans-8722"/>
       <use x="83.789062" xlink:href="#DejaVuSans-52"/>
      </g>
     </g>
    </g>
    <g id="xtick_2">
     <g id="line2d_2">
      <g>
       <use style="stroke:#000000;stroke-width:0.8;" x="160.527273" xlink:href="#mee7164ad5b" y="252"/>
      </g>
     </g>
     <g id="text_2">
      <!-- −2 -->
      <defs>
       <path d="M 19.1875 8.296875 
L 53.609375 8.296875 
L 53.609375 0 
L 7.328125 0 
L 7.328125 8.296875 
Q 12.9375 14.109375 22.625 23.890625 
Q 32.328125 33.6875 34.8125 36.53125 
Q 39.546875 41.84375 41.421875 45.53125 
Q 43.3125 49.21875 43.3125 52.78125 
Q 43.3125 58.59375 39.234375 62.25 
Q 35.15625 65.921875 28.609375 65.921875 
Q 23.96875 65.921875 18.8125 64.3125 
Q 13.671875 62.703125 7.8125 59.421875 
L 7.8125 69.390625 
Q 13.765625 71.78125 18.9375 73 
Q 24.125 74.21875 28.421875 74.21875 
Q 39.75 74.21875 46.484375 68.546875 
Q 53.21875 62.890625 53.21875 53.421875 
Q 53.21875 48.921875 51.53125 44.890625 
Q 49.859375 40.875 45.40625 35.40625 
Q 44.1875 33.984375 37.640625 27.21875 
Q 31.109375 20.453125 19.1875 8.296875 
z
" id="DejaVuSans-50"/>
      </defs>
      <g transform="translate(153.156179 266.598437)scale(0.1 -0.1)">
       <use xlink:href="#DejaVuSans-8722"/>
       <use x="83.789062" xlink:href="#DejaVuSans-50"/>
      </g>
     </g>
    </g>
    <g id="xtick_3">
     <g id="line2d_3">
      <g>
       <use style="stroke:#000000;stroke-width:0.8;" x="221.4" xlink:href="#mee7164ad5b" y="252"/>
      </g>
     </g>
     <g id="text_3">
      <!-- 0 -->
      <defs>
       <path d="M 31.78125 66.40625 
Q 24.171875 66.40625 20.328125 58.90625 
Q 16.5 51.421875 16.5 36.375 
Q 16.5 21.390625 20.328125 13.890625 
Q 24.171875 6.390625 31.78125 6.390625 
Q 39.453125 6.390625 43.28125 13.890625 
Q 47.125 21.390625 47.125 36.375 
Q 47.125 51.421875 43.28125 58.90625 
Q 39.453125 66.40625 31.78125 66.40625 
z
M 31.78125 74.21875 
Q 44.046875 74.21875 50.515625 64.515625 
Q 56.984375 54.828125 56.984375 36.375 
Q 56.984375 17.96875 50.515625 8.265625 
Q 44.046875 -1.421875 31.78125 -1.421875 
Q 19.53125 -1.421875 13.0625 8.265625 
Q 6.59375 17.96875 6.59375 36.375 
Q 6.59375 54.828125 13.0625 64.515625 
Q 19.53125 74.21875 31.78125 74.21875 
z
" id="DejaVuSans-48"/>
      </defs>
      <g transform="translate(218.21875 266.598437)scale(0.1 -0.1)">
       <use xlink:href="#DejaVuSans-48"/>
      </g>
     </g>
    </g>
    <g id="xtick_4">
     <g id="line2d_4">
      <g>
       <use style="stroke:#000000;stroke-width:0.8;" x="282.272727" xlink:href="#mee7164ad5b" y="252"/>
      </g>
     </g>
     <g id="text_4">
      <!-- 2 -->
      <g transform="translate(279.091477 266.598437)scale(0.1 -0.1)">
       <use xlink:href="#DejaVuSans-50"/>
      </g>
     </g>
    </g>
    <g id="xtick_5">
     <g id="line2d_5">
      <g>
       <use style="stroke:#000000;stroke-width:0.8;" x="343.145455" xlink:href="#mee7164ad5b" y="252"/>
      </g>
     </g>
     <g id="text_5">
      <!-- 4 -->
      <g transform="translate(339.964205 266.598437)scale(0.1 -0.1)">
       <use xlink:href="#DejaVuSans-52"/>
      </g>
     </g>
    </g>
   </g>
   <g id="matplotlib.axis_2">
    <g id="ytick_1">
     <g id="line2d_6">
      <defs>
       <path d="M 0 0 
L -3.5 0 
" id="m7f4444b92d" style="stroke:#000000;stroke-width:0.8;"/>
      </defs>
      <g>
       <use style="stroke:#000000;stroke-width:0.8;" x="54" xlink:href="#m7f4444b92d" y="242.147439"/>
      </g>
     </g>
     <g id="text_6">
      <!-- −1.00 -->
      <defs>
       <path d="M 12.40625 8.296875 
L 28.515625 8.296875 
L 28.515625 63.921875 
L 10.984375 60.40625 
L 10.984375 69.390625 
L 28.421875 72.90625 
L 38.28125 72.90625 
L 38.28125 8.296875 
L 54.390625 8.296875 
L 54.390625 0 
L 12.40625 0 
z
" id="DejaVuSans-49"/>
       <path d="M 10.6875 12.40625 
L 21 12.40625 
L 21 0 
L 10.6875 0 
z
" id="DejaVuSans-46"/>
      </defs>
      <g transform="translate(16.354687 245.946658)scale(0.1 -0.1)">
       <use xlink:href="#DejaVuSans-8722"/>
       <use x="83.789062" xlink:href="#DejaVuSans-49"/>
       <use x="147.412109" xlink:href="#DejaVuSans-46"/>
       <use x="179.199219" xlink:href="#DejaVuSans-48"/>
       <use x="242.822266" xlink:href="#DejaVuSans-48"/>
      </g>
     </g>
    </g>
    <g id="ytick_2">
     <g id="line2d_7">
      <g>
       <use style="stroke:#000000;stroke-width:0.8;" x="54" xlink:href="#m7f4444b92d" y="217.430579"/>
      </g>
     </g>
     <g id="text_7">
      <!-- −0.75 -->
      <defs>
       <path d="M 8.203125 72.90625 
L 55.078125 72.90625 
L 55.078125 68.703125 
L 28.609375 0 
L 18.3125 0 
L 43.21875 64.59375 
L 8.203125 64.59375 
z
" id="DejaVuSans-55"/>
       <path d="M 10.796875 72.90625 
L 49.515625 72.90625 
L 49.515625 64.59375 
L 19.828125 64.59375 
L 19.828125 46.734375 
Q 21.96875 47.46875 24.109375 47.828125 
Q 26.265625 48.1875 28.421875 48.1875 
Q 40.625 48.1875 47.75 41.5 
Q 54.890625 34.8125 54.890625 23.390625 
Q 54.890625 11.625 47.5625 5.09375 
Q 40.234375 -1.421875 26.90625 -1.421875 
Q 22.3125 -1.421875 17.546875 -0.640625 
Q 12.796875 0.140625 7.71875 1.703125 
L 7.71875 11.625 
Q 12.109375 9.234375 16.796875 8.0625 
Q 21.484375 6.890625 26.703125 6.890625 
Q 35.15625 6.890625 40.078125 11.328125 
Q 45.015625 15.765625 45.015625 23.390625 
Q 45.015625 31 40.078125 35.4375 
Q 35.15625 39.890625 26.703125 39.890625 
Q 22.75 39.890625 18.8125 39.015625 
Q 14.890625 38.140625 10.796875 36.28125 
z
" id="DejaVuSans-53"/>
      </defs>
      <g transform="translate(16.354687 221.229798)scale(0.1 -0.1)">
       <use xlink:href="#DejaVuSans-8722"/>
       <use x="83.789062" xlink:href="#DejaVuSans-48"/>
       <use x="147.412109" xlink:href="#DejaVuSans-46"/>
       <use x="179.199219" xlink:href="#DejaVuSans-55"/>
       <use x="242.822266" xlink:href="#DejaVuSans-53"/>
      </g>
     </g>
    </g>
    <g id="ytick_3">
     <g id="line2d_8">
      <g>
       <use style="stroke:#000000;stroke-width:0.8;" x="54" xlink:href="#m7f4444b92d" y="192.713719"/>
      </g>
     </g>
     <g id="text_8">
      <!-- −0.50 -->
      <g transform="translate(16.354687 196.512938)scale(0.1 -0.1)">
       <use xlink:href="#DejaVuSans-8722"/>
       <use x="83.789062" xlink:href="#DejaVuSans-48"/>
       <use x="147.412109" xlink:href="#DejaVuSans-46"/>
       <use x="179.199219" xlink:href="#DejaVuSans-53"/>
       <use x="242.822266" xlink:href="#DejaVuSans-48"/>
      </g>
     </g>
    </g>
    <g id="ytick_4">
     <g id="line2d_9">
      <g>
       <use style="stroke:#000000;stroke-width:0.8;" x="54" xlink:href="#m7f4444b92d" y="167.99686"/>
      </g>
     </g>
     <g id="text_9">
      <!-- −0.25 -->
      <g transform="translate(16.354687 171.796078)scale(0.1 -0.1)">
       <use xlink:href="#DejaVuSans-8722"/>
       <use x="83.789062" xlink:href="#DejaVuSans-48"/>
       <use x="147.412109" xlink:href="#DejaVuSans-46"/>
       <use x="179.199219" xlink:href="#DejaVuSans-50"/>
       <use x="242.822266" xlink:href="#DejaVuSans-53"/>
      </g>
     </g>
    </g>
    <g id="ytick_5">
     <g id="line2d_10">
      <g>
       <use style="stroke:#000000;stroke-width:0.8;" x="54" xlink:href="#m7f4444b92d" y="143.28"/>
      </g>
     </g>
     <g id="text_10">
      <!-- 0.00 -->
      <g transform="translate(24.734375 147.079219)scale(0.1 -0.1)">
       <use xlink:href="#DejaVuSans-48"/>
       <use x="63.623047" xlink:href="#DejaVuSans-46"/>
       <use x="95.410156" xlink:href="#DejaVuSans-48"/>
       <use x="159.033203" xlink:href="#DejaVuSans-48"/>
      </g>
     </g>
    </g>
    <g id="ytick_6">
     <g id="line2d_11">
      <g>
       <use style="stroke:#000000;stroke-width:0.8;" x="54" xlink:href="#m7f4444b92d" y="118.56314"/>
      </g>
     </g>
     <g id="text_11">
      <!-- 0.25 -->
      <g transform="translate(24.734375 122.362359)scale(0.1 -0.1)">
       <use xlink:href="#DejaVuSans-48"/>
       <use x="63.623047" xlink:href="#DejaVuSans-46"/>
       <use x="95.410156" xlink:href="#DejaVuSans-50"/>
       <use x="159.033203" xlink:href="#DejaVuSans-53"/>
      </g>
     </g>
    </g>
    <g id="ytick_7">
     <g id="line2d_12">
      <g>
       <use style="stroke:#000000;stroke-width:0.8;" x="54" xlink:href="#m7f4444b92d" y="93.846281"/>
      </g>
     </g>
     <g id="text_12">
      <!-- 0.50 -->
      <g transform="translate(24.734375 97.645499)scale(0.1 -0.1)">
       <use xlink:href="#DejaVuSans-48"/>
       <use x="63.623047" xlink:href="#DejaVuSans-46"/>
       <use x="95.410156" xlink:href="#DejaVuSans-53"/>
       <use x="159.033203" xlink:href="#DejaVuSans-48"/>
      </g>
     </g>
    </g>
    <g id="ytick_8">
     <g id="line2d_13">
      <g>
       <use style="stroke:#000000;stroke-width:0.8;" x="54" xlink:href="#m7f4444b92d" y="69.129421"/>
      </g>
     </g>
     <g id="text_13">
      <!-- 0.75 -->
      <g transform="translate(24.734375 72.92864)scale(0.1 -0.1)">
       <use xlink:href="#DejaVuSans-48"/>
       <use x="63.623047" xlink:href="#DejaVuSans-46"/>
       <use x="95.410156" xlink:href="#DejaVuSans-55"/>
       <use x="159.033203" xlink:href="#DejaVuSans-53"/>
      </g>
     </g>
    </g>
    <g id="ytick_9">
     <g id="line2d_14">
      <g>
       <use style="stroke:#000000;stroke-width:0.8;" x="54" xlink:href="#m7f4444b92d" y="44.412561"/>
      </g>
     </g>
     <g id="text_14">
      <!-- 1.00 -->
      <g transform="translate(24.734375 48.21178)scale(0.1 -0.1)">
       <use xlink:href="#DejaVuSans-49"/>
       <use x="63.623047" xlink:href="#DejaVuSans-46"/>
       <use x="95.410156" xlink:href="#DejaVuSans-48"/>
       <use x="159.033203" xlink:href="#DejaVuSans-48"/>
      </g>
     </g>
    </g>
   </g>
   <g id="line2d_15">
    <path clip-path="url(#p9b0137214a)" d="M 69.218182 143.28 
L 107.606388 143.339243 
L 108.520393 143.333032 
L 109.739066 143.171074 
L 111.567076 143.355696 
L 112.481081 143.120359 
L 113.090418 143.189908 
L 114.004423 143.470852 
L 114.613759 143.386954 
L 115.527764 143.052409 
L 116.137101 143.153352 
L 117.051106 143.550722 
L 117.660442 143.429589 
L 118.574447 142.958784 
L 118.879115 142.969204 
L 119.488452 143.317656 
L 120.097789 143.660172 
L 120.402457 143.646894 
L 121.011794 143.234186 
L 121.62113 142.831183 
L 121.925799 142.84797 
L 122.535135 143.33555 
L 123.144472 143.808526 
L 123.44914 143.787449 
L 124.058477 143.212868 
L 124.667813 142.659172 
L 124.972482 142.685463 
L 125.27715 142.949007 
L 126.191155 144.007418 
L 126.495823 143.97482 
L 126.800491 143.665023 
L 127.409828 142.708384 
L 127.714496 142.429833 
L 128.019165 142.470024 
L 128.323833 142.833267 
L 128.93317 143.948575 
L 129.237838 144.271134 
L 129.542506 144.221844 
L 129.847174 143.797015 
L 130.456511 142.499992 
L 130.761179 142.127429 
L 131.065848 142.187573 
L 131.370516 142.683168 
L 131.979853 144.187718 
L 132.284521 144.616936 
L 132.589189 144.543901 
L 132.893857 143.967217 
L 133.503194 142.226327 
L 133.807862 141.733103 
L 134.112531 141.821386 
L 134.417199 142.490723 
L 135.026536 144.500012 
L 135.331204 145.065336 
L 135.635872 144.959092 
L 135.940541 144.184187 
L 136.549877 141.870954 
L 136.854545 141.224649 
L 137.159214 141.351963 
L 137.463882 142.246812 
L 138.073219 144.903265 
L 138.377887 145.640259 
L 138.682555 145.488325 
L 138.987224 144.457587 
L 139.59656 141.414665 
L 139.901229 140.576409 
L 140.205897 140.756999 
L 140.510565 141.941251 
L 141.119902 145.418099 
L 141.42457 146.369086 
L 141.729238 146.15527 
L 142.033907 144.798088 
L 142.643243 140.835433 
L 142.947912 139.759318 
L 143.25258 140.011515 
L 143.557248 141.562935 
L 144.166585 146.067915 
L 144.471253 147.282498 
L 144.775921 146.986134 
L 145.08059 145.217172 
L 145.689926 140.108531 
L 145.994595 138.741177 
L 146.299263 139.088182 
L 146.603931 141.100079 
L 147.213268 146.878695 
L 147.517936 148.414084 
L 147.822604 148.009229 
L 148.127273 145.726834 
L 148.736609 139.206824 
L 149.041278 137.487175 
L 149.345946 137.957877 
L 149.650614 140.540578 
L 150.259951 147.878592 
L 150.564619 149.79967 
L 150.869287 149.254288 
L 151.173956 146.339172 
L 151.783292 138.101306 
L 152.087961 135.960718 
L 152.392629 136.590495 
L 152.697297 139.872475 
L 153.306634 149.097272 
L 153.611302 151.476322 
L 153.915971 150.75151 
L 154.220639 147.065856 
L 154.829975 136.761882 
L 155.134644 134.124601 
L 155.439312 134.956051 
L 155.74398 139.084547 
L 156.353317 150.56499 
L 156.657985 153.481013 
L 156.962654 152.530325 
L 157.267322 147.91749 
L 157.876658 135.158438 
L 158.181327 131.942508 
L 158.485995 133.026052 
L 158.790663 138.166996 
L 159.4 152.311379 
L 159.704668 155.848933 
L 160.009337 154.617877 
L 160.314005 148.902871 
L 160.923342 133.262196 
L 161.22801 129.380872 
L 161.532678 130.775139 
L 161.837346 137.112226 
L 162.446683 154.363962 
L 162.751351 158.611492 
L 163.05602 157.037277 
L 163.360688 150.028184 
L 163.970025 131.047321 
L 164.274693 126.411012 
L 164.579361 128.182934 
L 164.884029 135.915671 
L 165.493366 156.746424 
L 165.798034 161.794047 
L 166.102703 159.805671 
L 166.407371 151.296171 
L 167.016708 128.49276 
L 167.321376 123.011508 
L 167.626044 125.236032 
L 167.930713 134.576623 
L 168.540049 159.476686 
L 168.844717 165.413457 
L 169.149386 162.93221 
L 169.454054 152.705306 
L 170.063391 125.584231 
L 170.368059 119.170688 
L 170.672727 121.930037 
L 170.977396 133.099022 
L 171.586732 162.564884 
L 171.8914 169.475586 
L 172.196069 166.416051 
L 172.500737 154.249065 
L 173.110074 122.316251 
L 173.414742 114.889099 
L 173.71941 118.271498 
L 174.024079 131.492128 
L 174.633415 166.011352 
L 174.938084 173.972903 
L 175.242752 170.244504 
L 175.54742 155.915328 
L 176.156757 118.694106 
L 176.461425 110.181788 
L 176.766093 114.279632 
L 177.070762 129.771022 
L 177.680098 169.804744 
L 177.984767 178.882365 
L 178.289435 174.391492 
L 178.898771 134.907934 
L 179.20344 114.735601 
L 179.508108 105.080215 
L 179.812776 109.987651 
L 180.422113 152.369241 
L 180.726781 173.920452 
L 181.03145 184.163753 
L 181.336118 178.816468 
L 181.945455 133.438717 
L 182.250123 110.472433 
L 182.554791 99.633607 
L 182.859459 105.443557 
L 183.468796 153.906913 
L 183.773464 178.319468 
L 184.078133 189.758674 
L 184.382801 183.463941 
L 184.992138 131.835522 
L 185.296806 105.95106 
L 185.601474 93.909575 
L 185.906143 100.710267 
L 186.515479 155.571936 
L 186.820147 182.947837 
L 187.124816 195.590368 
L 187.429484 188.26373 
L 188.038821 130.113147 
L 188.343489 101.232891 
L 188.648157 87.993837 
L 188.952826 95.86496 
L 189.562162 157.346399 
L 189.86683 187.736836 
L 190.171499 201.564477 
L 190.476167 193.132033 
L 191.085504 128.292648 
L 191.390172 96.393719 
L 191.69484 81.988939 
L 191.999509 90.997578 
L 192.608845 159.206109 
L 192.913514 192.603954 
L 193.218182 207.570847 
L 193.52285 197.973356 
L 194.132187 126.401304 
L 194.436855 91.52231 
L 194.741523 76.011935 
L 195.046192 86.208477 
L 195.655528 161.120792 
L 195.960197 197.454739 
L 196.264865 213.486367 
L 196.569533 202.683271 
L 197.17887 124.472245 
L 197.483538 86.718131 
L 197.788206 70.191028 
L 198.092875 81.605274 
L 198.702211 163.054654 
L 199.00688 202.185477 
L 199.311548 219.178814 
L 199.616216 207.151931 
L 200.225553 122.543697 
L 200.530221 82.08828 
L 200.834889 64.661291 
L 201.139558 77.299016 
L 201.748894 164.96731 
L 202.053563 206.686637 
L 202.358231 224.511527 
L 202.662899 211.268182 
L 203.272236 120.65788 
L 203.576904 77.743703 
L 203.881572 59.559635 
L 204.186241 73.399832 
L 205.404914 229.34873 
L 205.709582 214.924078 
L 206.928256 55.01928 
L 207.232924 70.012315 
L 208.451597 233.561201 
L 208.756265 218.019543 
L 209.974939 51.164019 
L 210.279607 67.230884 
L 211.49828 237.031976 
L 211.802948 220.466907 
L 213.021622 48.102637 
L 213.32629 65.135428 
L 214.544963 239.661726 
L 214.849631 222.195021 
L 216.068305 45.92382 
L 216.372973 63.787493 
L 217.591646 241.37348 
L 217.896314 223.152693 
L 219.114988 44.691887 
L 219.419656 63.227286 
L 220.333661 223.088324 
L 220.638329 242.116364 
L 220.942998 223.311205 
L 221.857002 63.248795 
L 222.161671 44.443636 
L 222.466339 63.471676 
L 223.380344 223.332714 
L 223.685012 241.868113 
L 223.989681 222.665746 
L 224.903686 63.407307 
L 225.208354 45.18652 
L 225.513022 64.513355 
L 226.427027 222.772507 
L 226.731695 240.63618 
L 227.036364 221.235652 
L 227.950369 64.364979 
L 228.255037 46.898274 
L 228.559705 66.321201 
L 229.47371 221.424572 
L 229.778378 238.457363 
L 230.083047 219.063444 
L 230.997052 66.093093 
L 231.30172 49.528024 
L 231.606388 68.84182 
L 232.520393 219.329116 
L 232.825061 235.395981 
L 233.12973 216.21273 
L 234.043735 68.540457 
L 234.348403 52.998799 
L 234.653071 72.002168 
L 235.567076 216.547685 
L 235.871744 231.54072 
L 236.176413 212.765109 
L 237.090418 71.635922 
L 237.395086 57.21127 
L 237.699754 75.713064 
L 238.613759 213.160168 
L 238.918428 227.000365 
L 239.223096 208.816297 
L 240.137101 75.291818 
L 240.441769 62.048473 
L 240.746437 79.873363 
L 241.660442 209.260984 
L 241.965111 221.898709 
L 242.269779 204.47172 
L 243.183784 79.408069 
L 243.488452 67.381186 
L 243.79312 84.374523 
L 244.707125 204.954726 
L 245.011794 216.368972 
L 245.316462 199.841869 
L 246.230467 83.876729 
L 246.535135 73.073633 
L 246.839803 89.105261 
L 247.753808 200.351523 
L 248.058477 210.548065 
L 248.363145 195.03769 
L 249.27715 88.586644 
L 249.581818 78.989153 
L 249.886486 93.956046 
L 250.800491 195.562422 
L 251.10516 204.571061 
L 251.409828 190.166281 
L 252.323833 93.427967 
L 252.628501 84.995523 
L 252.93317 98.823164 
L 253.847174 190.69504 
L 254.151843 198.566163 
L 254.456511 185.327109 
L 255.370516 98.29627 
L 255.675184 90.969632 
L 255.979853 103.612163 
L 256.893857 185.849733 
L 257.198526 192.650425 
L 257.503194 180.60894 
L 258.417199 103.096059 
L 258.721867 96.801326 
L 259.026536 108.240532 
L 259.940541 181.116443 
L 260.245209 186.926393 
L 260.549877 176.087567 
L 261.463882 107.743532 
L 261.76855 102.396247 
L 262.073219 112.639548 
L 262.987224 176.572349 
L 263.291892 181.479785 
L 263.59656 171.824399 
L 264.510565 112.168508 
L 264.815233 107.677635 
L 265.119902 116.755256 
L 266.033907 172.280368 
L 266.338575 176.378212 
L 266.643243 167.865894 
L 267.557248 116.315496 
L 267.861916 112.587097 
L 268.166585 120.548648 
L 269.08059 168.288502 
L 269.385258 171.670901 
L 269.689926 164.243749 
L 270.603931 120.143949 
L 270.9086 117.084414 
L 271.213268 123.995116 
L 272.127273 164.629963 
L 272.431941 167.389312 
L 272.736609 160.975769 
L 273.650614 123.62779 
L 273.955283 121.146543 
L 274.259951 127.083314 
L 275.173956 161.323968 
L 275.478624 163.548492 
L 275.783292 158.06724 
L 276.697297 126.754329 
L 277.001966 124.765953 
L 277.306634 129.813576 
L 278.220639 158.377066 
L 278.525307 160.148988 
L 278.829975 155.512679 
L 279.74398 129.522723 
L 280.048649 127.948508 
L 280.353317 132.196038 
L 281.267322 155.784861 
L 281.57199 157.179128 
L 281.876658 153.297804 
L 282.790663 131.942123 
L 283.095332 130.711067 
L 283.4 134.248621 
L 284.314005 153.533948 
L 284.618673 154.617492 
L 284.923342 151.401562 
L 285.837346 134.029675 
L 286.142015 133.078987 
L 286.446683 135.99501 
L 287.360688 151.603949 
L 287.665356 152.435399 
L 287.970025 149.798118 
L 288.884029 135.80849 
L 289.188698 135.083678 
L 289.493366 137.462728 
L 290.407371 149.969505 
L 290.712039 150.599282 
L 291.016708 148.458694 
L 291.930713 137.305712 
L 292.235381 136.76033 
L 292.540049 138.681408 
L 293.454054 148.602123 
L 293.758722 149.072825 
L 294.063391 147.353176 
L 294.977396 138.550771 
L 295.282064 138.145916 
L 295.586732 139.681305 
L 296.500737 147.471818 
L 296.805405 147.818823 
L 297.110074 146.451469 
L 298.024079 139.573866 
L 298.328747 139.277502 
L 298.633415 140.492085 
L 299.54742 146.548485 
L 299.852088 146.800682 
L 300.156757 145.724567 
L 301.070762 140.40473 
L 301.37543 140.190914 
L 301.680098 141.141901 
L 302.594103 145.803001 
L 302.898771 145.983591 
L 303.20344 145.145335 
L 304.117445 141.071675 
L 304.422113 140.919741 
L 304.726781 141.656735 
L 305.640786 145.208037 
L 305.945455 145.335351 
L 306.250123 144.689046 
L 307.164128 141.600908 
L 307.468796 141.494664 
L 307.773464 142.059988 
L 308.687469 144.738614 
L 308.992138 144.826897 
L 309.296806 144.333673 
L 310.210811 142.016099 
L 310.515479 141.943064 
L 310.820147 142.372282 
L 311.734152 144.372427 
L 312.038821 144.432571 
L 312.343489 144.060008 
L 313.257494 142.338156 
L 313.562162 142.288866 
L 313.86683 142.611425 
L 314.780835 144.089976 
L 315.085504 144.130167 
L 315.390172 143.851616 
L 316.304177 142.58518 
L 316.608845 142.552582 
L 316.913514 142.792516 
L 317.827518 143.874537 
L 318.132187 143.900828 
L 318.436855 143.694687 
L 319.35086 142.772551 
L 319.655528 142.751474 
L 320.264865 143.22445 
L 320.874201 143.71203 
L 321.17887 143.728817 
L 321.788206 143.325814 
L 322.397543 142.913106 
L 322.702211 142.899828 
L 323.311548 143.242344 
L 323.920885 143.590796 
L 324.225553 143.601216 
L 324.834889 143.310846 
L 325.444226 143.017386 
L 326.053563 143.102149 
L 326.967568 143.501343 
L 327.576904 143.429015 
L 328.490909 143.093911 
L 329.100246 143.15546 
L 330.014251 143.436057 
L 330.623587 143.383821 
L 331.537592 143.149457 
L 332.146929 143.193669 
L 333.365602 143.390857 
L 335.193612 143.220757 
L 336.412285 143.35621 
L 338.544963 143.275662 
L 339.763636 143.313045 
L 341.286978 143.252936 
L 342.810319 143.30211 
L 344.638329 143.278374 
L 346.466339 143.268459 
L 350.427027 143.272254 
L 355.30172 143.280234 
L 364.746437 143.279136 
L 373.581818 143.28 
L 373.581818 143.28 
" style="fill:none;stroke:#1f77b4;stroke-linecap:square;stroke-width:1.5;"/>
   </g>
   <g id="patch_3">
    <path d="M 54 252 
L 54 34.56 
" style="fill:none;stroke:#000000;stroke-linecap:square;stroke-linejoin:miter;stroke-width:0.8;"/>
   </g>
   <g id="patch_4">
    <path d="M 388.8 252 
L 388.8 34.56 
" style="fill:none;stroke:#000000;stroke-linecap:square;stroke-linejoin:miter;stroke-width:0.8;"/>
   </g>
   <g id="patch_5">
    <path d="M 54 252 
L 388.8 252 
" style="fill:none;stroke:#000000;stroke-linecap:square;stroke-linejoin:miter;stroke-width:0.8;"/>
   </g>
   <g id="patch_6">
    <path d="M 54 34.56 
L 388.8 34.56 
" style="fill:none;stroke:#000000;stroke-linecap:square;stroke-linejoin:miter;stroke-width:0.8;"/>
   </g>
  </g>
 </g>
 <defs>
  <clipPath id="p9b0137214a">
   <rect height="217.44" width="334.8" x="54" y="34.56"/>
  </clipPath>
 </defs>
</svg>
